v 0.000000 0.654383 -0.147673
v 0.361625 0.654383 0.001623
v 0.340243 0.654383 0.499379
v 0.000000 1.038047 -0.199130
v 0.234507 1.543510 0.223383
v 0.234507 1.543510 -0.025373
v 0.000000 1.477787 -0.120609
v 0.000000 1.477787 0.462390
v 0.000000 1.543510 -0.042342
v 0.000000 1.543510 0.216781
v 0.486212 1.449743 0.004849
v 0.486212 1.449743 0.384395
v 0.000000 1.648891 -0.042342
v 0.000000 1.648891 0.216781
v 0.234507 1.648891 -0.025373
v 0.234507 1.648891 0.223383
v 0.000000 1.037966 0.545265
v 0.000000 1.143661 0.582118
v 0.000000 0.654383 0.551380
v 0.413413 1.000473 0.462520
v 0.416186 0.919882 -0.011963
v 0.000000 0.875632 -0.151991
v 0.486212 1.096388 0.462123
v 0.486212 1.045682 -0.037342
v 0.721020 1.355360 0.053684
v 0.721020 1.355360 0.341385
v 0.721020 1.164536 0.364618
v 0.721020 1.141781 0.045736
v 0.603616 1.424710 0.011234
v 0.603616 1.093732 -0.014782
v 0.603616 1.424710 0.379103
v 0.603616 1.130462 0.432349
v -0.361625 0.654383 0.001623
v -0.340243 0.654383 0.499379
v -0.234507 1.543510 0.223383
v -0.234507 1.543510 -0.025373
v -0.486212 1.449743 0.004849
v -0.486212 1.449743 0.384395
v -0.234507 1.648891 -0.025373
v -0.234507 1.648891 0.223383
v -0.413413 1.000473 0.462520
v -0.416186 0.919882 -0.011963
v -0.486212 1.096388 0.462123
v -0.486212 1.045682 -0.037342
v -0.721020 1.355360 0.053684
v -0.721020 1.355360 0.341385
v -0.721020 1.164536 0.364618
v -0.721020 1.141781 0.045736
v -0.603616 1.424710 0.011234
v -0.603616 1.093732 -0.014782
v -0.603616 1.424710 0.379103
v -0.603616 1.130462 0.432349
v 0.024723 1.576742 -0.230994
v 0.024723 1.752679 -0.330855
v 0.558312 2.762713 -0.265989
v 0.770463 2.489080 -0.317814
v 0.024723 2.823317 -0.334550
v 0.024723 2.742926 0.442616
v 0.024723 1.992661 -0.602529
v 0.750374 1.992661 -0.342075
v 0.024723 2.479397 -0.598094
v 0.422084 1.590626 0.552035
v 0.024723 2.042607 0.934836
v 0.471570 2.325426 0.805555
v 0.481170 2.453032 0.419992
v 0.645389 1.998499 0.456516
v 0.368387 2.098747 0.875291
v 0.422923 2.099332 0.762880
v 0.634441 2.131413 0.728500
v 0.024723 2.817756 0.122519
v 0.024723 2.448382 0.599732
v 0.495327 2.398122 0.430901
v 0.603377 2.409492 0.537201
v 0.586508 2.522843 0.538597
v 0.194948 2.369705 0.499944
v 0.204019 2.325175 0.494633
v 0.024723 1.856618 0.171853
v 0.532473 2.480296 0.543992
v 0.552800 2.398667 0.541803
v 0.105254 2.366114 0.565650
v 0.189125 1.856400 0.171853
v 0.024723 2.066261 0.790292
v 0.128642 2.247028 0.683944
v 0.024723 2.309247 0.674682
v 0.024723 2.160268 0.618287
v 0.024723 2.392541 0.614308
v 0.443655 2.110574 0.934836
v 0.024723 2.042607 0.906295
v 0.024723 2.070466 0.844868
v 0.024723 2.060493 0.842513
v 0.024723 2.073497 0.914293
v 0.368057 2.144996 0.881142
v 0.423316 2.153887 0.765418
v 0.411600 2.139990 0.733301
v 0.633877 2.131413 0.694250
v 0.572043 2.232492 0.556585
v 0.428622 1.856084 0.171852
v 0.177870 2.092102 0.171853
v 0.409449 2.092102 0.171853
v 0.024723 2.092102 0.171853
v 0.144298 2.075959 0.582015
v 0.024723 2.087836 0.503281
v 0.144270 2.073027 0.527143
v 0.457199 2.075361 0.527143
v 0.601290 2.061833 0.509365
v 0.024723 2.094358 0.616340
v 0.596896 2.083689 0.554721
v 0.456963 2.077981 0.582015
v 0.134600 2.147911 0.633474
v 0.139545 2.114580 0.628462
v 0.024723 2.114432 0.628699
v 0.024723 2.147911 0.633474
v 0.499809 2.159708 0.622513
v 0.611187 2.140284 0.588314
v 0.602792 2.098373 0.589046
v 0.144286 2.095400 0.616340
v 0.456954 2.097198 0.616340
v 0.456954 2.091873 0.503281
v 0.144286 2.089318 0.503281
v 0.024723 2.074944 0.582015
v 0.457199 2.055238 0.533704
v 0.456963 2.055238 0.574382
v 0.144298 1.989180 0.574388
v 0.144270 1.989180 0.533704
v 0.024723 2.008297 0.574391
v 0.024723 2.008297 0.533706
v 0.596896 2.026326 0.547086
v 0.600548 2.026327 0.516629
v 0.649429 2.039451 0.481915
v 0.461832 1.903719 0.641441
v 0.654601 2.125653 0.513981
v 0.488090 1.770467 0.717481
v 0.482134 1.910556 0.171853
v 0.595281 2.132902 0.701032
v 0.546575 1.973941 0.641443
v 0.024723 1.903719 0.658869
v 0.433546 2.762459 0.310280
v 0.702239 2.340899 -0.018752
v 0.686742 2.529152 -0.096526
v 0.686543 2.444324 -0.023260
v 0.742293 2.468751 -0.181276
v 0.736444 2.330463 -0.112083
v 0.660016 2.585847 -0.134532
v 0.727515 2.354363 -0.009481
v 0.639478 2.592777 -0.038817
v 0.717182 2.436992 0.001173
v 0.700534 2.501915 0.007742
v 0.717388 2.465645 -0.121808
v 0.108972 2.190516 0.686280
v 0.180822 2.206599 0.591718
v 0.024723 2.230571 0.715807
v 0.163203 2.314031 0.551340
v 0.143034 2.160409 0.623627
v 0.193988 2.253277 0.586179
v 0.055536 2.193157 0.699174
v 0.118493 2.174181 0.673595
v 0.133403 2.225010 0.688546
v 0.055978 2.210329 0.706429
v 0.116792 2.208815 0.690052
v 0.024723 2.173635 0.693528
v 0.469470 2.114873 0.619470
v 0.024723 2.071728 0.527143
v 0.590956 1.971704 0.488143
v 0.503683 1.931750 0.328867
v 0.446270 1.580526 -0.122202
v 0.587259 1.752679 -0.164555
v 0.428145 1.588095 0.383065
v 0.024723 1.587495 0.383074
v 0.024723 1.761345 0.781701
v 0.024723 1.591099 0.588880
v 0.525770 2.114432 0.606803
v 0.058691 2.228683 0.711854
v 0.066881 2.296926 0.671303
v 0.442658 2.276416 0.561843
v 0.657609 2.514827 -0.028360
v 0.534935 2.485631 0.461264
v 0.555067 2.407709 0.465123
v 0.066610 2.160318 0.620178
v 0.054647 2.174694 0.692146
v 0.585961 2.109173 0.878774
v 0.536158 1.765964 0.421106
v 0.754314 2.468983 -0.161355
v 0.700099 2.605589 -0.128281
v 0.718273 2.597012 -0.116956
v 0.753176 2.335762 -0.093574
v 0.756551 2.468171 -0.124849
v 0.726171 2.304762 -0.017479
v 0.678084 2.586340 -0.029465
v 0.662399 2.604493 -0.039382
v 0.721192 2.368202 -0.083946
v 0.090654 2.364483 0.511607
v 0.166119 2.310519 0.503867
v 0.568763 2.403567 0.417414
v 0.551410 2.493563 0.398108
v 0.270930 2.381538 0.524355
v 0.289904 2.358390 0.524355
v 0.441659 2.394143 0.499418
v 0.429831 2.423410 0.499418
v -0.508866 2.762713 -0.265989
v -0.721017 2.489080 -0.317814
v -0.700928 1.992661 -0.342075
v -0.372638 1.590626 0.552035
v -0.422125 2.325426 0.805555
v -0.431724 2.453032 0.419992
v -0.595943 1.998499 0.456516
v -0.318941 2.098747 0.875291
v -0.373477 2.099332 0.762880
v -0.584995 2.131413 0.728500
v -0.445881 2.398122 0.430901
v -0.553931 2.409492 0.537201
v -0.537063 2.522843 0.538597
v -0.145502 2.369705 0.499944
v -0.154573 2.325175 0.494633
v -0.483028 2.480296 0.543992
v -0.503354 2.398667 0.541803
v -0.055808 2.366114 0.565650
v -0.139679 1.856400 0.171853
v -0.079196 2.247028 0.683944
v -0.394209 2.110574 0.934836
v -0.318612 2.144996 0.881142
v -0.373870 2.153887 0.765418
v -0.362155 2.139990 0.733301
v -0.584431 2.131413 0.694250
v -0.522598 2.232492 0.556585
v -0.379176 1.856084 0.171852
v -0.128425 2.092102 0.171853
v -0.360003 2.092102 0.171853
v -0.094852 2.075959 0.582015
v -0.094824 2.073027 0.527143
v -0.407753 2.075361 0.527143
v -0.551844 2.061833 0.509365
v -0.547451 2.083689 0.554721
v -0.407517 2.077981 0.582015
v -0.085154 2.147911 0.633474
v -0.090099 2.114580 0.628462
v -0.450363 2.159708 0.622513
v -0.561741 2.140284 0.588314
v -0.553346 2.098373 0.589046
v -0.094840 2.095400 0.616340
v -0.407508 2.097198 0.616340
v -0.407508 2.091873 0.503281
v -0.094840 2.089318 0.503281
v -0.407753 2.055238 0.533704
v -0.407517 2.055238 0.574382
v -0.094852 1.989180 0.574388
v -0.094824 1.989180 0.533704
v -0.547451 2.026326 0.547086
v -0.551103 2.026327 0.516629
v -0.599983 2.039451 0.481915
v -0.412386 1.903719 0.641441
v -0.605155 2.125653 0.513981
v -0.438644 1.770467 0.717481
v -0.432689 1.910556 0.171853
v -0.545835 2.132902 0.701032
v -0.497130 1.973941 0.641443
v -0.384100 2.762459 0.310280
v -0.652794 2.340899 -0.018752
v -0.637296 2.529152 -0.096526
v -0.637097 2.444324 -0.023260
v -0.692848 2.468751 -0.181276
v -0.686998 2.330463 -0.112083
v -0.610571 2.585847 -0.134532
v -0.678069 2.354363 -0.009481
v -0.590032 2.592777 -0.038817
v -0.667736 2.436992 0.001173
v -0.651089 2.501915 0.007742
v -0.667943 2.465645 -0.121808
v -0.059527 2.190516 0.686280
v -0.131376 2.206599 0.591718
v -0.113758 2.314031 0.551340
v -0.093589 2.160409 0.623627
v -0.144542 2.253277 0.586179
v -0.006090 2.193157 0.699174
v -0.069047 2.174181 0.673595
v -0.083958 2.225010 0.688546
v -0.006533 2.210329 0.706429
v -0.067346 2.208815 0.690052
v -0.420024 2.114873 0.619470
v -0.541510 1.971704 0.488143
v -0.454238 1.931750 0.328867
v -0.396825 1.580526 -0.122202
v -0.537813 1.752679 -0.164555
v -0.378700 1.588095 0.383065
v -0.476325 2.114432 0.606803
v -0.009245 2.228683 0.711854
v -0.017436 2.296926 0.671303
v -0.393212 2.276416 0.561843
v -0.608164 2.514827 -0.028360
v -0.485489 2.485631 0.461264
v -0.505621 2.407709 0.465123
v -0.017165 2.160318 0.620178
v -0.005201 2.174694 0.692146
v -0.536515 2.109173 0.878774
v -0.486712 1.765964 0.421106
v -0.704868 2.468983 -0.161355
v -0.650653 2.605589 -0.128281
v -0.668827 2.597012 -0.116956
v -0.703730 2.335762 -0.093574
v -0.707105 2.468171 -0.124849
v -0.676726 2.304762 -0.017479
v -0.628638 2.586340 -0.029465
v -0.612953 2.604493 -0.039382
v -0.671746 2.368202 -0.083946
v -0.041208 2.364483 0.511607
v -0.116673 2.310519 0.503867
v -0.519318 2.403567 0.417414
v -0.501964 2.493563 0.398108
v -0.221484 2.381538 0.524355
v -0.240459 2.358390 0.524355
v -0.392214 2.394143 0.499418
v -0.380385 2.423410 0.499418
v -0.375620 0.061601 -0.045971
v -0.375620 0.060207 0.612229
v -0.027388 0.060207 0.612229
v -0.375620 -0.030681 -0.045971
v -0.375620 -0.030681 0.612229
v -0.027388 -0.030681 -0.045971
v -0.027388 -0.030681 0.612229
v -0.027388 0.060207 -0.045971
v -0.027388 0.117164 -0.006918
v -0.375620 0.117164 -0.006918
v -0.064961 0.233003 0.012216
v -0.338047 0.233344 0.012216
v -0.143465 0.068190 0.573370
v -0.259543 0.070054 0.564296
v -0.259543 -0.030681 -0.045971
v -0.143465 -0.030681 -0.045971
v -0.143465 -0.030681 0.573370
v -0.259543 -0.030681 0.564296
v -0.259543 0.061136 -0.045971
v -0.143465 0.060672 -0.045971
v -0.259543 0.117164 0.334972
v -0.143465 0.117164 0.334972
v -0.143465 0.117164 -0.006918
v -0.259543 0.117164 -0.006918
v -0.155990 0.233117 0.012216
v -0.247018 0.233230 0.012216
v -0.375620 0.060794 0.334977
v -0.375620 -0.030681 0.334977
v -0.027388 -0.030681 0.334977
v -0.027388 0.060207 0.334977
v -0.027388 0.117164 0.334972
v -0.375620 0.117164 0.334972
v -0.064961 0.233003 0.356149
v -0.338047 0.233003 0.356149
v -0.247018 0.233003 0.356149
v -0.155990 0.233003 0.356149
v -0.259543 -0.030681 0.334977
v -0.143465 -0.030681 0.334977
v -0.375620 0.060501 0.473603
v -0.375620 -0.030681 0.473603
v -0.027388 -0.030681 0.473603
v -0.027388 0.060207 0.473603
v -0.259543 -0.030681 0.473603
v -0.143465 -0.030681 0.473603
v -0.027388 0.088685 0.473603
v -0.143465 0.088685 0.473603
v -0.259543 0.088685 0.473603
v -0.375620 0.088685 0.473603
v -0.201504 0.060207 0.612229
v -0.201504 -0.030681 -0.045971
v -0.201504 -0.030681 0.612229
v -0.201504 0.060904 -0.045971
v -0.201504 0.117164 0.334972
v -0.201504 0.117164 -0.006918
v -0.201504 0.233174 0.012216
v -0.201504 -0.030681 0.334977
v -0.201504 0.233003 0.356149
v -0.201504 -0.030681 0.473603
v -0.201504 0.088685 0.473603
v 0.354526 0.536624 -0.000960
v 0.354526 0.536624 0.422715
v 0.086465 0.536624 0.422715
v 0.086465 0.536624 -0.000960
v 0.093515 0.269278 0.379130
v 0.347267 0.269083 0.379130
v 0.093516 0.269121 -0.011150
v 0.347266 0.269659 -0.011150
v 0.430270 0.233927 -0.119744
v 0.430270 0.233159 0.489021
v 0.025623 0.233159 -0.119744
v 0.025623 0.233159 0.489021
v 0.399344 0.176326 -0.041701
v 0.399344 0.175585 0.410319
v 0.041645 0.175611 -0.041701
v 0.041645 0.175721 0.410319
v -0.337401 0.536624 -0.000960
v -0.337401 0.536624 0.422715
v -0.069339 0.536624 0.422715
v -0.069339 0.536624 -0.000960
v -0.076390 0.269278 0.379130
v -0.330141 0.269083 0.379130
v -0.076390 0.269121 -0.011150
v -0.330141 0.269659 -0.011150
v -0.413145 0.233927 -0.119744
v -0.413145 0.233159 0.489021
v -0.008497 0.233159 -0.119744
v -0.008497 0.233159 0.489021
v -0.382219 0.176326 -0.041701
v -0.382219 0.175585 0.410319
v -0.024520 0.175611 -0.041701
v -0.024520 0.175721 0.410319
v 0.781963 0.609069 -0.002882
v 0.565329 0.609069 -0.002882
v 0.719070 0.431503 0.023723
v 0.630606 0.431503 0.027069
v 0.630623 0.431503 0.399274
v 0.719298 0.431503 0.393656
v 0.781963 0.497376 0.451965
v 0.565329 0.497376 0.459000
v 0.781963 0.609069 0.426005
v 0.565329 0.609069 0.426005
v 0.711946 0.720442 0.084793
v 0.587370 0.720442 0.324422
v 0.587370 0.720442 0.085184
v 0.630615 0.431503 0.212190
v 0.719193 0.431503 0.212190
v 0.781963 0.609069 0.212190
v 0.565329 0.609069 0.212190
v 0.707331 0.930419 0.383574
v 0.595891 0.888990 0.384866
v 0.707331 0.930419 0.025276
v 0.595891 0.888990 0.026806
v 0.759639 0.720442 0.212190
v 0.630611 0.431503 0.110642
v 0.719132 0.431503 0.110642
v 0.781963 0.609069 0.110642
v 0.565329 0.609069 0.110642
v 0.587370 0.720442 0.212190
v 0.549321 0.871839 0.207874
v 0.781890 0.956541 0.207874
v 0.630619 0.431503 0.313336
v 0.719246 0.431503 0.313336
v 0.781963 0.609069 0.313336
v 0.565329 0.609069 0.313336
v 0.631260 0.223197 0.331405
v 0.703551 0.223197 0.327890
v 0.703587 0.223197 0.382095
v 0.631260 0.223197 0.385999
v 0.633074 0.209178 0.135183
v 0.701502 0.209178 0.132600
v 0.701544 0.209178 0.186052
v 0.633074 0.209178 0.189015
v 0.642940 0.225813 0.049138
v 0.691519 0.225813 0.047573
v 0.691548 0.225813 0.085550
v 0.642940 0.225813 0.087385
v 0.634417 0.196382 0.242940
v 0.700287 0.196382 0.240090
v 0.700320 0.196382 0.289516
v 0.634417 0.196382 0.292720
v 0.758680 0.577908 0.508807
v 0.761710 0.533687 0.510958
v 0.586016 0.534467 0.519261
v 0.588908 0.577511 0.516968
v 0.616689 1.144669 0.383574
v 0.506393 1.103240 0.384866
v 0.616689 1.144669 0.025276
v 0.504093 1.103240 0.026806
v 0.458671 1.086089 0.207874
v 0.691242 1.170791 0.207874
v 0.711946 0.720442 0.324005
v 0.626341 0.295545 0.035392
v 0.715639 0.295545 0.033218
v 0.715698 0.295545 0.090453
v 0.626345 0.295545 0.093003
v 0.607564 0.295545 0.124705
v 0.734519 0.295545 0.121083
v 0.734603 0.295545 0.202397
v 0.607568 0.295545 0.206551
v 0.607583 0.295545 0.225534
v 0.734625 0.295545 0.221379
v 0.734696 0.295545 0.299945
v 0.607587 0.295545 0.304616
v 0.607600 0.295545 0.323455
v 0.734715 0.295545 0.318783
v 0.734786 0.295545 0.397347
v 0.607604 0.295545 0.402535
v 0.781963 0.435482 -0.002882
v 0.748244 0.399672 0.013251
v 0.600335 0.399659 0.014877
v 0.565329 0.435432 -0.002882
v 0.750193 0.397649 0.409605
v 0.781963 0.435645 0.434846
v 0.565329 0.435060 0.437099
v 0.599470 0.398741 0.412028
v 0.750105 0.397688 0.212190
v 0.781963 0.435565 0.212190
v 0.599014 0.398266 0.212190
v 0.565329 0.435292 0.212190
v 0.781963 0.435525 0.110642
v 0.750073 0.397689 0.110642
v 0.565329 0.435370 0.110642
v 0.598910 0.398159 0.110642
v 0.565329 0.435191 0.313336
v 0.599196 0.398455 0.313336
v 0.781963 0.435604 0.313336
v 0.750143 0.397675 0.313336
v 0.711394 0.753221 0.077677
v 0.588389 0.748268 0.078204
v 0.588389 0.748268 0.331649
v 0.582821 0.746217 0.211674
v 0.762299 0.756344 0.211674
v 0.711394 0.753221 0.331127
v -0.781963 0.609069 -0.002882
v -0.565329 0.609069 -0.002882
v -0.719070 0.431503 0.023723
v -0.630606 0.431503 0.027069
v -0.630623 0.431503 0.399274
v -0.719298 0.431503 0.393656
v -0.781963 0.497376 0.451965
v -0.565329 0.497376 0.459000
v -0.781963 0.609069 0.426005
v -0.565329 0.609069 0.426005
v -0.711946 0.720442 0.084793
v -0.587370 0.720442 0.324422
v -0.587370 0.720442 0.085184
v -0.630615 0.431503 0.212190
v -0.719193 0.431503 0.212190
v -0.781963 0.609069 0.212190
v -0.565329 0.609069 0.212190
v -0.707331 0.930419 0.383574
v -0.595891 0.888990 0.384866
v -0.707331 0.930419 0.025276
v -0.595891 0.888990 0.026806
v -0.759639 0.720442 0.212190
v -0.630611 0.431503 0.110642
v -0.719132 0.431503 0.110642
v -0.781963 0.609069 0.110642
v -0.565329 0.609069 0.110642
v -0.587370 0.720442 0.212190
v -0.549321 0.871839 0.207874
v -0.781890 0.956541 0.207874
v -0.630619 0.431503 0.313336
v -0.719246 0.431503 0.313336
v -0.781963 0.609069 0.313336
v -0.565329 0.609069 0.313336
v -0.631260 0.223197 0.331405
v -0.703551 0.223197 0.327890
v -0.703587 0.223197 0.382095
v -0.631260 0.223197 0.385999
v -0.633074 0.209178 0.135183
v -0.701502 0.209178 0.132600
v -0.701544 0.209178 0.186052
v -0.633074 0.209178 0.189015
v -0.642940 0.225813 0.049138
v -0.691519 0.225813 0.047573
v -0.691548 0.225813 0.085550
v -0.642940 0.225813 0.087385
v -0.634417 0.196382 0.242940
v -0.700287 0.196382 0.240090
v -0.700320 0.196382 0.289516
v -0.634417 0.196382 0.292720
v -0.758680 0.577908 0.508807
v -0.761710 0.533687 0.510958
v -0.586016 0.534467 0.519261
v -0.588908 0.577511 0.516968
v -0.616689 1.144669 0.383574
v -0.506393 1.103240 0.384866
v -0.616689 1.144669 0.025276
v -0.504093 1.103240 0.026806
v -0.458671 1.086089 0.207874
v -0.691242 1.170791 0.207874
v -0.711946 0.720442 0.324005
v -0.626341 0.295545 0.035392
v -0.715639 0.295545 0.033218
v -0.715698 0.295545 0.090453
v -0.626345 0.295545 0.093003
v -0.607564 0.295545 0.124705
v -0.734519 0.295545 0.121083
v -0.734603 0.295545 0.202397
v -0.607568 0.295545 0.206551
v -0.607583 0.295545 0.225534
v -0.734625 0.295545 0.221379
v -0.734696 0.295545 0.299945
v -0.607587 0.295545 0.304616
v -0.607600 0.295545 0.323455
v -0.734715 0.295545 0.318783
v -0.734786 0.295545 0.397347
v -0.607604 0.295545 0.402535
v -0.781963 0.435482 -0.002882
v -0.748244 0.399672 0.013251
v -0.600335 0.399659 0.014877
v -0.565329 0.435432 -0.002882
v -0.750193 0.397649 0.409605
v -0.781963 0.435645 0.434846
v -0.565329 0.435060 0.437099
v -0.599470 0.398741 0.412028
v -0.750105 0.397688 0.212190
v -0.781963 0.435565 0.212190
v -0.599014 0.398266 0.212190
v -0.565329 0.435292 0.212190
v -0.781963 0.435525 0.110642
v -0.750073 0.397689 0.110642
v -0.565329 0.435370 0.110642
v -0.598910 0.398159 0.110642
v -0.565329 0.435191 0.313336
v -0.599196 0.398455 0.313336
v -0.781963 0.435604 0.313336
v -0.750143 0.397675 0.313336
v -0.711394 0.753221 0.077677
v -0.588389 0.748268 0.078204
v -0.588389 0.748268 0.331649
v -0.582821 0.746217 0.211674
v -0.762299 0.756344 0.211674
v -0.711394 0.753221 0.331127
v 0.000000 0.654383 -0.147673
v 0.361625 0.654383 0.001623
v 0.340243 0.654383 0.499379
v 0.413444 0.478691 0.553056
v 0.435626 0.478691 -0.039010
v 0.000000 0.478691 -0.182956
v 0.000000 0.478691 0.643962
v 0.000000 0.654383 0.551380
v 0.000000 0.620952 -0.182956
v 0.390824 0.654383 -0.014410
v 0.435626 0.620952 -0.039010
v 0.000000 0.620952 0.643962
v 0.000000 0.654383 0.603324
v 0.413444 0.620952 0.553056
v 0.370817 0.654383 0.521798
v -0.361625 0.654383 0.001623
v -0.340243 0.654383 0.499379
v -0.413444 0.478691 0.553056
v -0.435626 0.478691 -0.039010
v -0.390824 0.654383 -0.014410
v -0.435626 0.620952 -0.039010
v -0.413444 0.620952 0.553056
v -0.370817 0.654383 0.521798
v 0.392746 0.061601 -0.045971
v 0.392746 0.060207 0.612229
v 0.044513 0.060207 0.612229
v 0.392746 -0.030681 -0.045971
v 0.392746 -0.030681 0.612229
v 0.044513 -0.030681 -0.045971
v 0.044513 -0.030681 0.612229
v 0.044513 0.060207 -0.045971
v 0.044513 0.117164 -0.006918
v 0.392746 0.117164 -0.006918
v 0.082087 0.233003 0.012216
v 0.355172 0.233344 0.012216
v 0.160591 0.068190 0.573370
v 0.276668 0.070054 0.564296
v 0.276668 -0.030681 -0.045971
v 0.160591 -0.030681 -0.045971
v 0.160591 -0.030681 0.573370
v 0.276668 -0.030681 0.564296
v 0.276668 0.061136 -0.045971
v 0.160591 0.060672 -0.045971
v 0.276668 0.117164 0.334972
v 0.160591 0.117164 0.334972
v 0.160591 0.117164 -0.006918
v 0.276668 0.117164 -0.006918
v 0.173115 0.233117 0.012216
v 0.264144 0.233230 0.012216
v 0.392746 0.060794 0.334977
v 0.392746 -0.030681 0.334977
v 0.044513 -0.030681 0.334977
v 0.044513 0.060207 0.334977
v 0.044513 0.117164 0.334972
v 0.392746 0.117164 0.334972
v 0.082087 0.233003 0.356149
v 0.355172 0.233003 0.356149
v 0.264143 0.233003 0.356149
v 0.173115 0.233003 0.356149
v 0.276668 -0.030681 0.334977
v 0.160591 -0.030681 0.334977
v 0.392746 0.060501 0.473603
v 0.392746 -0.030681 0.473603
v 0.044513 -0.030681 0.473603
v 0.044513 0.060207 0.473603
v 0.276668 -0.030681 0.473603
v 0.160591 -0.030681 0.473603
v 0.044513 0.088685 0.473603
v 0.160591 0.088685 0.473603
v 0.276668 0.088685 0.473603
v 0.392746 0.088685 0.473603
v 0.218629 0.060207 0.612229
v 0.218629 -0.030681 -0.045971
v 0.218629 -0.030681 0.612229
v 0.218629 0.060904 -0.045971
v 0.218629 0.117164 0.334972
v 0.218629 0.117164 -0.006918
v 0.218629 0.233174 0.012216
v 0.218629 -0.030681 0.334977
v 0.218629 0.233003 0.356149
v 0.218629 -0.030681 0.473603
v 0.218629 0.088685 0.473603
vn 0.1778 0.0401 0.9833
vn 0.9787 -0.2010 0.0410
vn -0.0281 -0.0000 0.9996
vn 0.1836 0.5376 -0.8230
vn 0.0691 0.9425 0.3269
vn 0.3491 0.9371 -0.0000
vn -0.0000 1.0000 -0.0000
vn 1.0000 -0.0000 -0.0000
vn 0.0722 -0.0000 -0.9974
vn 0.3514 -0.0737 -0.9333
vn 0.8423 -0.5339 0.0744
vn 0.2121 0.2698 0.9393
vn 0.1917 -0.2412 0.9514
vn 0.2833 0.1358 -0.9494
vn 0.3179 -0.3033 -0.8983
vn 0.4053 0.0569 -0.9124
vn 0.5086 0.8610 -0.0000
vn 0.4231 0.1411 0.8950
vn 0.3313 -0.9407 0.0731
vn 0.3313 -0.9395 0.0868
vn 0.1374 0.1964 0.9709
vn 0.2085 0.9780 -0.0000
vn 0.1130 0.0918 -0.9893
vn -0.1778 0.0401 0.9833
vn -0.9787 -0.2010 0.0410
vn 0.0281 -0.0000 0.9996
vn -0.1836 0.5376 -0.8230
vn -0.0691 0.9425 0.3269
vn -0.3491 0.9371 -0.0000
vn -1.0000 -0.0000 -0.0000
vn -0.0722 -0.0000 -0.9974
vn -0.3514 -0.0737 -0.9333
vn -0.8423 -0.5339 0.0744
vn -0.2121 0.2698 0.9393
vn -0.1917 -0.2412 0.9514
vn -0.2833 0.1358 -0.9494
vn -0.3179 -0.3033 -0.8983
vn -0.4053 0.0569 -0.9124
vn -0.5086 0.8610 -0.0000
vn -0.4231 0.1411 0.8950
vn -0.3313 -0.9407 0.0731
vn -0.3313 -0.9395 0.0868
vn -0.1374 0.1964 0.9709
vn -0.2085 0.9780 -0.0000
vn -0.1130 0.0918 -0.9893
vn 0.2421 -0.4494 -0.8599
vn 0.1686 0.5995 -0.7824
vn 0.9013 -0.3854 0.1977
vn 0.1168 0.9930 0.0197
vn 0.8065 0.5597 0.1905
vn 0.2229 -0.7054 -0.6728
vn 0.9911 -0.0791 0.1068
vn 0.3448 0.0203 -0.9385
vn 0.0336 0.4704 0.8818
vn 0.2699 -0.9435 0.1922
vn -0.9705 0.1782 0.1621
vn 0.0272 0.9734 0.2275
vn -0.0014 0.9951 -0.0985
vn 0.0952 -0.0001 0.9955
vn 0.2552 -0.9653 -0.0547
vn 0.1765 0.7357 0.6539
vn 0.3166 0.4077 -0.8565
vn 0.8683 -0.4840 0.1083
vn 0.9632 0.1718 0.2067
vn 0.3303 0.4548 0.8271
vn 0.7834 0.5263 0.3306
vn -0.1461 0.2138 -0.9659
vn -0.6696 0.7425 -0.0181
vn -0.2520 0.9601 -0.1212
vn -0.9335 -0.2446 -0.2624
vn -0.9679 -0.2460 -0.0509
vn 0.0047 -1.0000 -0.0046
vn 0.0031 -0.9999 0.0164
vn 0.2360 0.4276 0.8726
vn -0.0000 -0.0000 1.0000
vn 0.4657 0.5955 0.6546
vn 0.0139 -0.9824 0.1863
vn 0.0836 0.1103 0.9904
vn -0.1604 0.9870 0.0046
vn -0.1156 0.9920 -0.0509
vn -0.0378 0.8668 0.4972
vn -0.2089 0.9774 -0.0314
vn 0.1237 -0.1748 0.9768
vn -0.2063 0.0752 -0.9756
vn 0.9011 -0.0365 0.4321
vn 0.0440 0.8463 0.5309
vn 0.0372 -0.5884 -0.8077
vn 0.9941 -0.0084 0.1079
vn 0.0054 -0.9999 -0.0104
vn -0.2588 -0.9652 0.0364
vn -0.1513 -0.2365 -0.9598
vn -0.0066 -0.0888 -0.9960
vn 0.2433 -0.1905 0.9511
vn 0.0011 -0.1449 0.9895
vn 0.0155 0.6250 0.7805
vn 0.0035 -0.5289 0.8487
vn 0.2192 -0.0269 0.9753
vn -0.0297 0.6368 0.7705
vn 0.8386 -0.2116 0.5019
vn -0.1797 -0.8929 0.4128
vn 0.0053 -0.8713 0.4907
vn -0.2002 -0.9769 -0.0750
vn 0.0064 -0.8241 -0.5664
vn 0.0096 -0.8273 -0.5616
vn 0.1043 -0.8953 0.4332
vn 0.0075 -0.8703 0.4925
vn 0.2066 -0.9784 0.0005
vn -0.1579 -0.9875 0.0001
vn -0.2016 -0.9794 -0.0110
vn 0.1734 -0.1844 0.9674
vn 0.0137 -0.1252 -0.9920
vn 0.0150 -0.1380 0.9903
vn -0.0075 -0.0989 0.9951
vn 0.5731 0.4735 0.6689
vn -0.7803 -0.3032 0.5470
vn -0.1212 0.4733 -0.8726
vn 0.6884 0.5311 0.4941
vn 0.6073 0.7868 -0.1098
vn 0.1193 -0.1983 0.9729
vn -0.2704 0.9583 -0.0923
vn -0.8904 0.3715 -0.2632
vn -0.1926 0.3505 -0.9166
vn 0.7866 0.5952 0.1642
vn 0.7706 0.6204 0.1458
vn 0.0729 0.0958 0.9927
vn 0.9754 0.0642 0.2108
vn 0.9906 -0.0585 0.1237
vn 0.8648 0.3271 0.3810
vn 0.9302 0.1600 0.3304
vn 0.2712 0.1461 -0.9514
vn 0.5057 0.0991 -0.8570
vn 0.6553 0.2284 -0.7200
vn 0.8419 -0.2746 0.4645
vn 0.2217 -0.4384 0.8710
vn 0.4424 -0.3671 0.8183
vn 0.0598 -0.3549 0.9330
vn 0.2222 -0.3363 0.9152
vn 0.9681 0.1436 0.2053
vn 0.0142 -0.3849 0.9229
vn 0.0305 -0.1122 0.9932
vn -0.3694 0.9263 -0.0743
vn -0.4139 0.7593 -0.5022
vn -0.4356 0.9001 0.0129
vn 0.1064 -0.5036 0.8574
vn 0.8749 -0.4727 0.1052
vn 0.8136 -0.5780 0.0627
vn 0.0009 -0.9999 0.0164
vn 0.3173 -0.4809 0.8174
vn 0.0880 -0.7205 0.6878
vn 0.1896 -0.2286 0.9549
vn 0.5523 0.6396 0.5347
vn 0.1713 0.4714 0.8651
vn 0.2630 -0.2527 0.9311
vn 0.0079 0.2715 0.9624
vn -0.2085 0.9720 0.1084
vn 0.2577 -0.9650 -0.0478
vn 0.4718 0.0130 0.8816
vn 0.5552 0.2101 0.8048
vn 0.7870 -0.3750 0.4899
vn 0.0220 -0.9727 0.2311
vn 0.4574 0.1934 0.8680
vn 0.6946 0.5457 0.4688
vn 0.8830 0.3551 -0.3071
vn 0.9973 -0.0401 -0.0620
vn 0.4864 0.8309 0.2702
vn 0.3478 -0.0369 0.9368
vn 0.7849 -0.2951 -0.5448
vn 0.2739 0.4196 -0.8654
vn 0.0488 0.3634 0.9304
vn -0.4289 0.8885 -0.1634
vn 0.8931 -0.2787 0.3530
vn 0.4745 -0.8611 -0.1824
vn 0.7457 0.5090 0.4300
vn 0.5997 -0.1837 -0.7788
vn -0.1621 0.3615 0.9182
vn 0.1462 -0.0056 0.9892
vn 0.1608 0.2349 0.9586
vn 0.1266 0.3866 0.9135
vn 0.1646 0.1879 0.9683
vn 0.1382 0.0812 0.9871
vn 0.7420 0.3063 0.5963
vn -0.2172 0.9522 0.2147
vn -0.2652 -0.1842 0.9464
vn -0.2421 -0.4494 -0.8599
vn -0.1686 0.5995 -0.7824
vn -0.9013 -0.3854 0.1977
vn -0.1168 0.9930 0.0197
vn -0.8065 0.5597 0.1905
vn -0.2229 -0.7054 -0.6728
vn -0.9911 -0.0791 0.1068
vn -0.3448 0.0203 -0.9385
vn -0.0336 0.4704 0.8818
vn -0.2699 -0.9435 0.1922
vn 0.9705 0.1782 0.1621
vn -0.0272 0.9734 0.2275
vn 0.0014 0.9951 -0.0985
vn -0.0952 -0.0001 0.9955
vn -0.2552 -0.9653 -0.0547
vn -0.1765 0.7357 0.6539
vn -0.3166 0.4077 -0.8565
vn -0.8683 -0.4840 0.1083
vn -0.9632 0.1718 0.2067
vn -0.3303 0.4548 0.8271
vn -0.7834 0.5263 0.3306
vn 0.1461 0.2138 -0.9659
vn 0.6696 0.7425 -0.0181
vn 0.2520 0.9601 -0.1212
vn 0.9335 -0.2446 -0.2624
vn 0.9679 -0.2460 -0.0509
vn -0.0047 -1.0000 -0.0046
vn -0.0031 -0.9999 0.0164
vn -0.2360 0.4276 0.8726
vn -0.4657 0.5955 0.6546
vn -0.0139 -0.9824 0.1863
vn -0.0836 0.1103 0.9904
vn 0.1604 0.9870 0.0046
vn 0.1156 0.9920 -0.0509
vn 0.0378 0.8668 0.4972
vn 0.2089 0.9774 -0.0314
vn -0.1237 -0.1748 0.9768
vn 0.2063 0.0752 -0.9756
vn -0.9011 -0.0365 0.4321
vn -0.0440 0.8463 0.5309
vn -0.0372 -0.5884 -0.8077
vn -0.9941 -0.0084 0.1079
vn -0.0054 -0.9999 -0.0104
vn 0.2588 -0.9652 0.0364
vn 0.1513 -0.2365 -0.9598
vn 0.0066 -0.0888 -0.9960
vn -0.2433 -0.1905 0.9511
vn -0.0011 -0.1449 0.9895
vn -0.0155 0.6250 0.7805
vn -0.0035 -0.5289 0.8487
vn -0.2192 -0.0269 0.9753
vn 0.0297 0.6368 0.7705
vn -0.8386 -0.2116 0.5019
vn 0.1797 -0.8929 0.4128
vn -0.0053 -0.8713 0.4907
vn 0.2002 -0.9769 -0.0750
vn -0.0064 -0.8241 -0.5664
vn -0.0096 -0.8273 -0.5616
vn -0.1043 -0.8953 0.4332
vn -0.0075 -0.8703 0.4925
vn -0.2066 -0.9784 0.0005
vn 0.1579 -0.9875 0.0001
vn 0.2016 -0.9794 -0.0110
vn -0.1734 -0.1844 0.9674
vn -0.0137 -0.1252 -0.9920
vn -0.0150 -0.1380 0.9903
vn 0.0075 -0.0989 0.9951
vn -0.5731 0.4735 0.6689
vn 0.7803 -0.3032 0.5470
vn 0.1212 0.4733 -0.8726
vn -0.6884 0.5311 0.4941
vn -0.6073 0.7868 -0.1098
vn -0.1193 -0.1983 0.9729
vn 0.2704 0.9583 -0.0923
vn 0.8904 0.3715 -0.2632
vn 0.1926 0.3505 -0.9166
vn -0.7866 0.5952 0.1642
vn -0.7706 0.6204 0.1458
vn -0.0729 0.0958 0.9927
vn -0.9754 0.0642 0.2108
vn -0.9906 -0.0585 0.1237
vn -0.8648 0.3271 0.3810
vn -0.9302 0.1600 0.3304
vn -0.2712 0.1461 -0.9514
vn -0.5057 0.0991 -0.8570
vn -0.6553 0.2284 -0.7200
vn -0.8419 -0.2746 0.4645
vn -0.2217 -0.4384 0.8710
vn -0.4424 -0.3671 0.8182
vn -0.0598 -0.3549 0.9330
vn -0.2222 -0.3363 0.9152
vn -0.9681 0.1436 0.2053
vn -0.0142 -0.3849 0.9229
vn -0.0305 -0.1122 0.9932
vn 0.3694 0.9263 -0.0743
vn 0.4139 0.7593 -0.5022
vn 0.4356 0.9001 0.0129
vn -0.1064 -0.5036 0.8574
vn -0.8749 -0.4727 0.1052
vn -0.8136 -0.5780 0.0627
vn -0.0009 -0.9999 0.0164
vn -0.3173 -0.4809 0.8174
vn -0.0880 -0.7205 0.6878
vn -0.1896 -0.2286 0.9549
vn -0.5523 0.6396 0.5347
vn -0.1713 0.4714 0.8651
vn -0.2630 -0.2527 0.9311
vn -0.0079 0.2715 0.9624
vn 0.2085 0.9720 0.1084
vn -0.2577 -0.9650 -0.0478
vn -0.4718 0.0130 0.8816
vn -0.5552 0.2101 0.8048
vn -0.7870 -0.3750 0.4899
vn -0.0220 -0.9727 0.2311
vn -0.4574 0.1934 0.8680
vn -0.6946 0.5457 0.4688
vn -0.8830 0.3551 -0.3071
vn -0.9973 -0.0401 -0.0620
vn -0.4864 0.8309 0.2702
vn -0.3478 -0.0369 0.9368
vn -0.7849 -0.2951 -0.5448
vn -0.2739 0.4196 -0.8654
vn -0.0488 0.3634 0.9304
vn 0.4289 0.8885 -0.1634
vn -0.8931 -0.2787 0.3530
vn -0.4745 -0.8611 -0.1824
vn -0.7457 0.5090 0.4300
vn -0.5997 -0.1837 -0.7788
vn 0.1621 0.3615 0.9182
vn -0.1462 -0.0056 0.9892
vn -0.1608 0.2349 0.9586
vn -0.1267 0.3866 0.9135
vn -0.1646 0.1879 0.9683
vn -0.1382 0.0812 0.9871
vn -0.7420 0.3063 0.5963
vn 0.2172 0.9522 0.2147
vn 0.2652 -0.1842 0.9464
vn -0.0000 -0.0000 -1.0000
vn -0.0000 -1.0000 -0.0000
vn -0.3175 -0.0000 0.9483
vn -0.0000 0.9795 0.2012
vn 0.0011 0.5671 -0.8237
vn -0.0000 -0.1798 0.9837
vn 0.0001 0.1629 -0.9866
vn -0.9514 0.3081 0.0002
vn 0.0006 1.0000 0.0002
vn 0.0006 1.0000 0.0008
vn 0.0006 1.0000 0.0004
vn 0.0001 0.1626 -0.9867
vn 0.0001 0.1628 -0.9867
vn 0.0011 0.5734 -0.8193
vn 0.0011 0.5694 -0.8220
vn 0.3817 -0.0000 0.9243
vn 0.5564 -0.0000 0.8309
vn 0.9512 0.3085 -0.0000
vn -0.6368 -0.0000 0.7710
vn 0.0011 0.5710 -0.8209
vn 0.0001 0.1627 -0.9867
vn 0.0006 1.0000 0.0006
vn -0.0000 0.2135 0.9770
vn -0.9805 0.1966 -0.0000
vn -0.0004 0.3649 -0.9311
vn 0.9702 0.2424 0.0002
vn 0.0007 -1.0000 -0.0005
vn 0.8810 -0.4731 -0.0007
vn 0.0016 -0.8048 -0.5936
vn -0.9633 -0.2685 -0.0000
vn -0.0001 -0.8074 0.5900
vn -0.8734 -0.4869 -0.0008
vn 0.0006 -0.3108 0.9505
vn 0.8745 -0.4850 0.0002
vn -0.0002 -0.3163 -0.9486
vn 0.9805 0.1966 -0.0000
vn 0.0004 0.3649 -0.9311
vn -0.9702 0.2424 0.0002
vn -0.0007 -1.0000 -0.0005
vn -0.8810 -0.4731 -0.0007
vn -0.0016 -0.8048 -0.5936
vn 0.9633 -0.2685 -0.0000
vn 0.0001 -0.8074 0.5900
vn 0.8734 -0.4869 -0.0008
vn -0.0006 -0.3108 0.9505
vn -0.8745 -0.4850 0.0002
vn 0.0002 -0.3163 -0.9486
vn 0.0009 0.6747 0.7380
vn -0.0009 0.6193 -0.7852
vn -0.9810 0.1941 -0.0000
vn -0.9973 -0.0688 0.0245
vn 0.9338 -0.0677 -0.3514
vn 0.0009 -0.2265 -0.9740
vn 0.0083 -0.2304 0.9730
vn 0.9079 0.3666 0.2033
vn -0.9974 -0.0688 -0.0219
vn 0.9145 0.3570 -0.1905
vn 0.8466 0.5322 -0.0000
vn 0.9182 -0.0658 0.3906
vn -0.0407 -0.1149 -0.9925
vn 0.9183 -0.3958 -0.0007
vn 0.0444 -0.2166 0.9753
vn -0.9505 -0.3108 -0.0000
vn -0.0315 -0.1249 -0.9917
vn 0.9340 -0.3573 -0.0009
vn 0.0357 -0.1939 0.9804
vn -0.9590 -0.2832 -0.0000
vn -0.0266 -0.1961 -0.9802
vn 0.9450 -0.3271 -0.0009
vn 0.0317 -0.0769 0.9965
vn -0.9728 -0.2315 -0.0000
vn -0.0357 -0.1777 -0.9834
vn 0.9449 -0.3274 -0.0008
vn 0.0405 -0.1133 0.9927
vn -0.9653 -0.2612 -0.0000
vn 0.0476 0.0509 0.9976
vn 0.0188 -0.8515 0.5240
vn 0.0062 0.9406 0.3395
vn 0.9543 0.0709 0.2904
vn -0.9574 0.0811 0.2773
vn -0.8870 -0.3729 0.2724
vn 0.0101 0.0042 0.9999
vn 0.8402 0.3555 0.4094
vn 0.8455 0.3577 -0.3964
vn -0.8881 -0.3781 -0.2614
vn -0.0118 -0.0050 -0.9999
vn -0.3442 0.9389 0.0010
vn -0.9995 0.0314 0.0001
vn 0.0142 -0.1382 0.9903
vn 0.9997 -0.0252 -0.0008
vn -0.0310 -0.0645 -0.9974
vn -0.9859 0.1671 -0.0000
vn 0.0192 -0.0572 0.9982
vn 0.9936 0.1125 -0.0008
vn -0.0167 -0.0893 -0.9959
vn -0.9860 0.1670 -0.0000
vn 0.0216 -0.0816 0.9964
vn 0.9936 0.1129 -0.0007
vn -0.0192 -0.0820 -0.9964
vn -0.9860 0.1669 -0.0000
vn 0.0500 0.0241 0.9985
vn 0.9936 0.1131 -0.0008
vn -0.0216 -0.0565 -0.9982
vn -0.0040 -0.4280 -0.9038
vn 0.0098 -0.5604 0.8282
vn 0.7452 -0.6667 -0.0126
vn -0.7317 -0.6816 0.0014
vn 0.7657 -0.6432 -0.0001
vn -0.7410 -0.6715 0.0005
vn 0.7650 -0.6441 -0.0000
vn -0.7274 -0.6861 -0.0101
vn -0.7375 -0.6754 0.0010
vn 0.7667 -0.6421 -0.0001
vn -0.7375 -0.6754 0.0003
vn 0.0198 -0.3356 0.9418
vn 0.7248 -0.6890 -0.0000
vn 0.0209 -0.3000 0.9537
vn -0.7385 -0.6742 0.0003
vn -0.0326 -0.3954 -0.9179
vn 0.7247 -0.6891 -0.0000
vn -0.7382 -0.6746 0.0003
vn -0.7379 -0.6749 0.0003
vn 0.7247 -0.6890 -0.0000
vn 0.9199 -0.0871 0.3824
vn -0.9768 -0.1306 -0.1699
vn 0.0697 -0.3153 0.9464
vn 0.0531 -0.3105 -0.9491
vn 0.9286 -0.0917 -0.3595
vn -0.9753 -0.1285 0.1795
vn -0.0009 0.6747 0.7380
vn 0.0009 0.6193 -0.7852
vn 0.9810 0.1941 -0.0000
vn 0.9973 -0.0688 0.0245
vn -0.9338 -0.0677 -0.3514
vn -0.0009 -0.2265 -0.9740
vn -0.0083 -0.2304 0.9730
vn -0.9079 0.3666 0.2033
vn 0.9974 -0.0688 -0.0219
vn -0.9145 0.3570 -0.1905
vn -0.8466 0.5322 -0.0000
vn -0.9182 -0.0658 0.3906
vn 0.0407 -0.1149 -0.9925
vn -0.9183 -0.3958 -0.0007
vn -0.0444 -0.2166 0.9753
vn 0.9505 -0.3108 -0.0000
vn 0.0315 -0.1249 -0.9917
vn -0.9340 -0.3573 -0.0009
vn -0.0357 -0.1939 0.9804
vn 0.9590 -0.2832 -0.0000
vn 0.0266 -0.1961 -0.9802
vn -0.9450 -0.3271 -0.0009
vn -0.0317 -0.0769 0.9965
vn 0.9728 -0.2315 -0.0000
vn 0.0357 -0.1777 -0.9834
vn -0.9449 -0.3274 -0.0008
vn -0.0405 -0.1133 0.9927
vn 0.9653 -0.2612 -0.0000
vn -0.0476 0.0509 0.9976
vn -0.0188 -0.8515 0.5240
vn -0.0062 0.9406 0.3395
vn -0.9543 0.0709 0.2904
vn 0.9574 0.0811 0.2773
vn 0.8870 -0.3729 0.2724
vn -0.0101 0.0042 0.9999
vn -0.8402 0.3555 0.4094
vn -0.8455 0.3577 -0.3964
vn 0.8881 -0.3781 -0.2614
vn 0.0118 -0.0050 -0.9999
vn 0.3442 0.9389 0.0010
vn 0.9995 0.0314 0.0001
vn -0.0142 -0.1382 0.9903
vn -0.9997 -0.0252 -0.0008
vn 0.0310 -0.0645 -0.9974
vn 0.9859 0.1671 -0.0000
vn -0.0192 -0.0572 0.9982
vn -0.9936 0.1125 -0.0008
vn 0.0167 -0.0893 -0.9959
vn 0.9860 0.1670 -0.0000
vn -0.0216 -0.0816 0.9964
vn -0.9936 0.1129 -0.0007
vn 0.0192 -0.0820 -0.9964
vn 0.9860 0.1669 -0.0000
vn -0.0500 0.0241 0.9985
vn -0.9936 0.1131 -0.0008
vn 0.0216 -0.0565 -0.9982
vn 0.0040 -0.4280 -0.9038
vn -0.0098 -0.5604 0.8282
vn -0.7452 -0.6667 -0.0126
vn 0.7317 -0.6816 0.0014
vn -0.7657 -0.6432 -0.0001
vn 0.7410 -0.6715 0.0005
vn -0.7650 -0.6441 -0.0000
vn 0.7274 -0.6861 -0.0101
vn 0.7375 -0.6754 0.0010
vn -0.7667 -0.6421 -0.0001
vn 0.7375 -0.6754 0.0003
vn -0.0198 -0.3356 0.9418
vn -0.7248 -0.6890 -0.0000
vn -0.0209 -0.3000 0.9537
vn 0.7385 -0.6742 0.0003
vn 0.0326 -0.3954 -0.9179
vn -0.7247 -0.6891 -0.0000
vn 0.7382 -0.6746 0.0003
vn 0.7379 -0.6749 0.0003
vn -0.7247 -0.6890 -0.0000
vn -0.9199 -0.0871 0.3824
vn 0.9768 -0.1306 -0.1699
vn -0.0697 -0.3153 0.9464
vn -0.0531 -0.3105 -0.9491
vn -0.9286 -0.0917 -0.3595
vn 0.9753 -0.1285 0.1795
vn 0.1383 0.7648 0.6292
vn 0.2180 0.7281 -0.6499
vn 0.6062 0.7950 0.0227
vn 0.3137 -0.0000 -0.9495
vn 0.9993 -0.0000 0.0374
vn 0.2147 -0.0000 0.9767
vn -0.1383 0.7648 0.6292
vn -0.2180 0.7281 -0.6499
vn -0.6062 0.7950 0.0227
vn -0.3137 -0.0000 -0.9495
vn -0.9993 -0.0000 0.0374
vn -0.2147 -0.0000 0.9767
vn 0.3175 -0.0000 0.9483
vn -0.0011 0.5671 -0.8237
vn -0.0001 0.1629 -0.9866
vn 0.9514 0.3081 0.0002
vn -0.0006 1.0000 0.0002
vn -0.0006 1.0000 0.0008
vn -0.0006 1.0000 0.0004
vn -0.0001 0.1626 -0.9867
vn -0.0001 0.1628 -0.9867
vn -0.0011 0.5734 -0.8193
vn -0.0011 0.5694 -0.8220
vn -0.3817 -0.0000 0.9243
vn -0.5564 -0.0000 0.8309
vn -0.9512 0.3085 -0.0000
vn 0.6368 -0.0000 0.7710
vn -0.0011 0.5710 -0.8209
vn -0.0001 0.1627 -0.9867
vn -0.0006 1.0000 0.0006
vt 0.029026 0.955509
vt 0.028954 0.955671
vt 0.028936 0.955707
vt 0.028972 0.955510
vt 0.028950 0.955646
vt 0.029006 0.955496
vt 0.028971 0.955627
vt 0.028934 0.955882
vt 0.028969 0.955882
vt 0.028969 0.955882
vt 0.028934 0.955883
vt 0.028969 0.955883
vt 0.028999 0.955856
vt 0.028934 0.955878
vt 0.028969 0.955882
vt 0.028934 0.955882
vt 0.028935 0.955882
vt 0.028991 0.955843
vt 0.028969 0.955882
vt 0.028969 0.955882
vt 0.028988 0.955845
vt 0.028999 0.955857
vt 0.028969 0.955882
vt 0.028966 0.955882
vt 0.028966 0.955882
vt 0.028966 0.955882
vt 0.028969 0.955882
vt 0.028934 0.955882
vt 0.028993 0.955500
vt 0.028937 0.955513
vt 0.028936 0.955609
vt 0.028978 0.955737
vt 0.028945 0.955726
vt 0.028921 0.955677
vt 0.028994 0.955861
vt 0.028935 0.955881
vt 0.028937 0.955759
vt 0.028946 0.955723
vt 0.028933 0.952223
vt 0.028946 0.952258
vt 0.028937 0.952286
vt 0.028936 0.952234
vt 0.028934 0.955878
vt 0.028999 0.955856
vt 0.028980 0.955732
vt 0.028930 0.955760
vt 0.028979 0.955733
vt 0.028981 0.955755
vt 0.029012 0.955841
vt 0.029020 0.955816
vt 0.028983 0.955779
vt 0.028994 0.955826
vt 0.028985 0.955824
vt 0.028962 0.955768
vt 0.028980 0.955777
vt 0.029007 0.955846
vt 0.028997 0.955836
vt 0.029009 0.955825
vt 0.029017 0.955833
vt 0.028999 0.955844
vt 0.028952 0.955745
vt 0.028960 0.955768
vt 0.028998 0.955817
vt 0.028952 0.955746
vt 0.028980 0.955758
vt 0.028980 0.955777
vt 0.028962 0.955768
vt 0.028998 0.955846
vt 0.029010 0.955843
vt 0.027651 0.954134
vt 0.027652 0.954135
vt 0.027652 0.954135
vt 0.027651 0.954135
vt 0.027726 0.959949
vt 0.027726 0.959948
vt 0.027726 0.959947
vt 0.027651 0.954133
vt 0.027650 0.954133
vt 0.027650 0.954132
vt 0.027651 0.954132
vt 0.027651 0.954133
vt 0.027651 0.954133
vt 0.027726 0.959946
vt 0.027726 0.959948
vt 0.027726 0.959948
vt 0.027726 0.959946
vt 0.027752 0.959832
vt 0.027752 0.959832
vt 0.027752 0.959832
vt 0.027752 0.959832
vt 0.027652 0.954136
vt 0.027650 0.954135
vt 0.027717 0.957877
vt 0.027717 0.957877
vt 0.027717 0.957877
vt 0.027717 0.957877
vt 0.027717 0.957877
vt 0.027717 0.957877
vt 0.027717 0.957877
vt 0.027717 0.957877
vt 0.027727 0.959947
vt 0.027727 0.959947
vt 0.027725 0.959953
vt 0.034961 0.940289
vt 0.034961 0.940326
vt 0.034961 0.940315
vt 0.034961 0.940294
vt 0.112501 0.880033
vt 0.112501 0.880563
vt 0.112502 0.878757
vt 0.112502 0.878337
vt 0.027727 0.959950
vt 0.027726 0.959951
vt 0.027726 0.959949
vt 0.028551 0.940166
vt 0.028551 0.940167
vt 0.028551 0.940167
vt 0.028551 0.940169
vt 0.028551 0.940170
vt 0.027537 0.957918
vt 0.027585 0.958489
vt 0.027679 0.957809
vt 0.027730 0.957018
vt 0.028094 0.950639
vt 0.028148 0.950710
vt 0.028138 0.950781
vt 0.027726 0.959948
vt 0.027727 0.959947
vt 0.027727 0.959947
vt 0.027726 0.959949
vt 0.027726 0.959947
vt 0.027652 0.954133
vt 0.027652 0.954133
vt 0.027717 0.957877
vt 0.027717 0.957877
vt 0.027717 0.957877
vt 0.112499 0.884504
vt 0.112499 0.883947
vt 0.112499 0.884504
vt 0.112482 0.912097
vt 0.112477 0.921228
vt 0.112476 0.922552
vt 0.115761 0.889403
vt 0.115759 0.892400
vt 0.115762 0.888488
vt 0.115762 0.888529
vt 0.028536 0.940143
vt 0.028529 0.940104
vt 0.028525 0.940085
vt 0.028569 0.940198
vt 0.028548 0.940165
vt 0.028094 0.950637
vt 0.028094 0.950637
vt 0.028095 0.950651
vt 0.028095 0.950644
vt 0.028094 0.950638
vt 0.027548 0.957847
vt 0.027629 0.958433
vt 0.027594 0.958698
vt 0.028537 0.940074
vt 0.028524 0.940075
vt 0.028520 0.940052
vt 0.028533 0.940044
vt 0.027652 0.954133
vt 0.027968 0.959599
vt 0.027968 0.959606
vt 0.027968 0.959605
vt 0.027968 0.959598
vt 0.028536 0.940090
vt 0.028531 0.940075
vt 0.028537 0.940073
vt 0.028541 0.940087
vt 0.027628 0.958129
vt 0.027726 0.959949
vt 0.027726 0.959949
vt 0.027726 0.959948
vt 0.027783 0.948223
vt 0.027783 0.948223
vt 0.027783 0.948223
vt 0.027742 0.949236
vt 0.027701 0.957855
vt 0.027701 0.957856
vt 0.027701 0.957856
vt 0.027701 0.957856
vt 0.035174 0.943997
vt 0.035175 0.943975
vt 0.035175 0.943974
vt 0.035174 0.943999
vt 0.035174 0.944014
vt 0.035174 0.943998
vt 0.035175 0.943984
vt 0.035174 0.944086
vt 0.035174 0.944037
vt 0.035175 0.943984
vt 0.115761 0.889403
vt 0.115761 0.889394
vt 0.115761 0.889393
vt 0.115761 0.889400
vt 0.115761 0.889393
vt 0.115761 0.889400
vt 0.115761 0.889402
vt 0.115761 0.889399
vt 0.115761 0.889399
vt 0.035174 0.944127
vt 0.035174 0.944103
vt 0.035174 0.944091
vt 0.027789 0.956850
vt 0.027795 0.956682
vt 0.027776 0.956742
vt 0.027784 0.956812
vt 0.028531 0.940048
vt 0.028535 0.940070
vt 0.028530 0.940071
vt 0.028524 0.940049
vt 0.115753 0.889337
vt 0.115750 0.889317
vt 0.115750 0.889319
vt 0.115753 0.889339
vt 0.028534 0.940050
vt 0.028531 0.940109
vt 0.028532 0.940101
vt 0.028521 0.940147
vt 0.115750 0.889316
vt 0.115753 0.889338
vt 0.115753 0.889340
vt 0.115750 0.889317
vt 0.115759 0.889376
vt 0.115754 0.889361
vt 0.115754 0.889362
vt 0.115759 0.889376
vt 0.028240 0.950303
vt 0.028240 0.950301
vt 0.028245 0.950292
vt 0.028251 0.950289
vt 0.028241 0.950314
vt 0.028241 0.950319
vt 0.028241 0.950319
vt 0.028241 0.950314
vt 0.027725 0.959934
vt 0.027725 0.959936
vt 0.027725 0.959937
vt 0.027725 0.959937
vt 0.027722 0.959937
vt 0.028241 0.950319
vt 0.028240 0.950314
vt 0.028240 0.950294
vt 0.028240 0.950304
vt 0.027792 0.956851
vt 0.027787 0.956856
vt 0.027773 0.956756
vt 0.027776 0.956743
vt 0.028236 0.950336
vt 0.028239 0.950330
vt 0.028237 0.950348
vt 0.035173 0.944135
vt 0.035172 0.944139
vt 0.035171 0.944140
vt 0.035173 0.944133
vt 0.035172 0.944151
vt 0.035171 0.944140
vt 0.035172 0.944150
vt 0.035172 0.944139
vt 0.035172 0.944136
vt 0.035172 0.944135
vt 0.035171 0.944140
vt 0.035172 0.944149
vt 0.035172 0.944149
vt 0.035171 0.944140
vt 0.035171 0.944151
vt 0.035172 0.944154
vt 0.035172 0.944155
vt 0.035171 0.944151
vt 0.035173 0.944129
vt 0.035172 0.944154
vt 0.035172 0.944151
vt 0.035172 0.944154
vt 0.115759 0.889389
vt 0.115758 0.889375
vt 0.115758 0.889375
vt 0.115760 0.889389
vt 0.115761 0.889393
vt 0.115762 0.889393
vt 0.115759 0.889375
vt 0.115758 0.889374
vt 0.115759 0.889375
vt 0.115750 0.889317
vt 0.115750 0.889316
vt 0.115750 0.889316
vt 0.115750 0.889317
vt 0.115749 0.889317
vt 0.115749 0.889317
vt 0.115754 0.889361
vt 0.115750 0.889316
vt 0.115755 0.889361
vt 0.115754 0.889362
vt 0.115750 0.889316
vt 0.115755 0.889361
vt 0.115760 0.889376
vt 0.115760 0.889376
vt 0.115754 0.889361
vt 0.027721 0.959938
vt 0.027720 0.959939
vt 0.028531 0.940109
vt 0.028527 0.940110
vt 0.028528 0.940120
vt 0.026736 0.943672
vt 0.026736 0.943666
vt 0.026736 0.943664
vt 0.026736 0.943668
vt 0.027751 0.958452
vt 0.027752 0.958459
vt 0.027751 0.958460
vt 0.028093 0.950634
vt 0.028095 0.950652
vt 0.027110 0.951753
vt 0.027111 0.951752
vt 0.027110 0.951752
vt 0.027110 0.951753
vt 0.028530 0.940106
vt 0.028541 0.940149
vt 0.028529 0.940127
vt 0.028541 0.940149
vt 0.028545 0.940155
vt 0.028547 0.940159
vt 0.027040 0.944197
vt 0.027054 0.944221
vt 0.027065 0.944250
vt 0.027065 0.944250
vt 0.027725 0.959951
vt 0.027726 0.959950
vt 0.027726 0.959949
vt 0.027726 0.959949
vt 0.027726 0.959950
vt 0.027701 0.957854
vt 0.027825 0.956075
vt 0.027846 0.955933
vt 0.027851 0.956110
vt 0.027717 0.957877
vt 0.027717 0.957877
vt 0.028019 0.946359
vt 0.028019 0.946359
vt 0.028019 0.946359
vt 0.028019 0.946359
vt 0.028018 0.946372
vt 0.028019 0.946361
vt 0.027871 0.956447
vt 0.027864 0.956459
vt 0.027863 0.956450
vt 0.027865 0.956456
vt 0.027865 0.956452
vt 0.027866 0.956460
vt 0.027867 0.956469
vt 0.027867 0.956473
vt 0.027111 0.951755
vt 0.027110 0.951755
vt 0.027111 0.951754
vt 0.027949 0.949478
vt 0.027949 0.949479
vt 0.027949 0.949478
vt 0.027949 0.949479
vt 0.027949 0.949479
vt 0.027949 0.949478
vt 0.027949 0.949471
vt 0.027949 0.949474
vt 0.027783 0.942818
vt 0.027783 0.942818
vt 0.027783 0.942816
vt 0.027783 0.942817
vt 0.027701 0.957854
vt 0.027697 0.957847
vt 0.027701 0.957854
vt 0.028240 0.950314
vt 0.028240 0.950301
vt 0.028523 0.940107
vt 0.027034 0.944186
vt 0.027034 0.944186
vt 0.027040 0.944196
vt 0.027652 0.954132
vt 0.027651 0.954132
vt 0.027652 0.954132
vt 0.027652 0.954133
vt 0.027751 0.958470
vt 0.027751 0.958461
vt 0.027968 0.959606
vt 0.027968 0.959607
vt 0.027968 0.959607
vt 0.027701 0.957854
vt 0.027753 0.958449
vt 0.028093 0.950636
vt 0.027701 0.957855
vt 0.027726 0.959949
vt 0.027949 0.949479
vt 0.027783 0.948223
vt 0.027751 0.956710
vt 0.027869 0.956478
vt 0.027841 0.956285
vt 0.027839 0.958251
vt 0.027871 0.956487
vt 0.027661 0.954811
vt 0.027669 0.954841
vt 0.027867 0.956470
vt 0.027867 0.956471
vt 0.027870 0.956484
vt 0.027868 0.956477
vt 0.027634 0.954768
vt 0.027660 0.954802
vt 0.027663 0.954816
vt 0.027669 0.954841
vt 0.027869 0.956480
vt 0.027796 0.956772
vt 0.027751 0.959833
vt 0.027750 0.959832
vt 0.027745 0.959818
vt 0.027867 0.956468
vt 0.027871 0.956486
vt 0.027651 0.953224
vt 0.027821 0.959393
vt 0.027825 0.959357
vt 0.027750 0.959831
vt 0.027751 0.959834
vt 0.034961 0.955412
vt 0.034961 0.955403
vt 0.034961 0.955384
vt 0.034961 0.955407
vt 0.034961 0.955443
vt 0.034961 0.955456
vt 0.034961 0.955469
vt 0.034961 0.955450
vt 0.034961 0.940289
vt 0.034961 0.940282
vt 0.034961 0.940259
vt 0.034961 0.940267
vt 0.034961 0.940314
vt 0.034961 0.940312
vt 0.034961 0.940317
vt 0.034961 0.940278
vt 0.034961 0.940291
vt 0.034961 0.940314
vt 0.034961 0.940296
vt 0.034961 0.940288
vt 0.028885 0.952153
vt 0.028885 0.952115
vt 0.028914 0.952115
vt 0.028914 0.952153
vt 0.028963 0.955739
vt 0.028884 0.955719
vt 0.028884 0.955833
vt 0.028959 0.955820
vt 0.028837 0.952174
vt 0.028837 0.952135
vt 0.028809 0.952135
vt 0.028809 0.952174
vt 0.028898 0.952143
vt 0.028898 0.952115
vt 0.028879 0.952115
vt 0.028879 0.952141
vt 0.028864 0.952135
vt 0.028939 0.952135
vt 0.028939 0.952174
vt 0.028864 0.952174
vt 0.028971 0.955603
vt 0.028936 0.955603
vt 0.028936 0.955725
vt 0.028971 0.955725
vt 0.028996 0.955393
vt 0.028970 0.955393
vt 0.028996 0.955275
vt 0.029000 0.955480
vt 0.028946 0.955481
vt 0.028946 0.955358
vt 0.029000 0.955358
vt 0.028994 0.955511
vt 0.028943 0.955511
vt 0.028943 0.955802
vt 0.028993 0.955835
vt 0.029006 0.955603
vt 0.028902 0.955590
vt 0.028902 0.955685
vt 0.029006 0.955725
vt 0.029003 0.955480
vt 0.028899 0.955494
vt 0.028899 0.955398
vt 0.029003 0.955358
vt 0.028988 0.955511
vt 0.028880 0.955493
vt 0.028880 0.955785
vt 0.028988 0.955802
vt 0.028863 0.955424
vt 0.028839 0.955413
vt 0.029036 0.955411
vt 0.029027 0.955432
vt 0.028967 0.955618
vt 0.028968 0.955577
vt 0.029044 0.955577
vt 0.029019 0.955619
vt 0.028897 0.955495
vt 0.028874 0.955507
vt 0.029036 0.955480
vt 0.029035 0.955487
vt 0.029003 0.955725
vt 0.028899 0.955685
vt 0.028899 0.955589
vt 0.029003 0.955603
vt 0.029003 0.955542
vt 0.028899 0.955542
vt 0.028899 0.955494
vt 0.029006 0.955358
vt 0.028903 0.955398
vt 0.028903 0.955494
vt 0.029006 0.955481
vt 0.029006 0.955542
vt 0.028902 0.955542
vt 0.028902 0.955589
vt 0.029006 0.955603
vt 0.029009 0.955725
vt 0.028956 0.955725
vt 0.028956 0.955603
vt 0.029010 0.955603
vt 0.029003 0.955541
vt 0.028949 0.955542
vt 0.028949 0.955481
vt 0.029003 0.955480
vt 0.028971 0.955358
vt 0.028936 0.955358
vt 0.028936 0.955480
vt 0.028971 0.955481
vt 0.028971 0.955542
vt 0.028936 0.955542
vt 0.028933 0.952196
vt 0.028933 0.952175
vt 0.028916 0.952174
vt 0.028916 0.952199
vt 0.028926 0.952187
vt 0.028926 0.952181
vt 0.028924 0.952181
vt 0.028924 0.952188
vt 0.028959 0.955600
vt 0.028884 0.955482
vt 0.028884 0.955592
vt 0.028955 0.955652
vt 0.028963 0.955699
vt 0.028884 0.955660
vt 0.028885 0.955716
vt 0.028966 0.955744
vt 0.028829 0.952153
vt 0.028829 0.952115
vt 0.028857 0.952115
vt 0.028857 0.952153
vt 0.028871 0.952154
vt 0.028871 0.952115
vt 0.028991 0.955714
vt 0.028967 0.955740
vt 0.028996 0.955752
vt 0.028992 0.955561
vt 0.028953 0.955662
vt 0.028980 0.955683
vt 0.029010 0.955802
vt 0.028902 0.955785
vt 0.028902 0.955493
vt 0.029010 0.955511
vt 0.028995 0.955393
vt 0.028970 0.955393
vt 0.028944 0.955511
vt 0.028995 0.955511
vt 0.028995 0.955835
vt 0.028943 0.955802
vt 0.028943 0.955511
vt 0.028995 0.955511
vt 0.028837 0.952135
vt 0.028837 0.952174
vt 0.028939 0.952174
vt 0.028939 0.952135
vt 0.028864 0.952135
vt 0.028864 0.952174
vt 0.028995 0.955749
vt 0.028960 0.955814
vt 0.028997 0.955818
vt 0.029018 0.955755
vt 0.029000 0.955815
vt 0.029038 0.955819
vt 0.028809 0.952135
vt 0.028809 0.952174
vt 0.029027 0.955514
vt 0.028975 0.955719
vt 0.028993 0.955728
vt 0.029020 0.955729
vt 0.028997 0.955748
vt 0.029018 0.955757
vt 0.028994 0.955603
vt 0.028971 0.955603
vt 0.029006 0.955725
vt 0.029006 0.955542
vt 0.028971 0.955542
vt 0.029006 0.955358
vt 0.028971 0.955359
vt 0.028996 0.955480
vt 0.028995 0.955511
vt 0.028944 0.955511
vt 0.028969 0.955393
vt 0.028995 0.955393
vt 0.028995 0.955275
vt 0.028969 0.955393
vt 0.028994 0.955393
vt 0.029006 0.955542
vt 0.029004 0.955691
vt 0.028986 0.955678
vt 0.028992 0.955713
vt 0.029019 0.955731
vt 0.028959 0.955657
vt 0.028963 0.955698
vt 0.028991 0.955716
vt 0.028884 0.955601
vt 0.028885 0.955657
vt 0.028962 0.955702
vt 0.028919 0.952143
vt 0.028919 0.952115
vt 0.028910 0.952115
vt 0.028910 0.952141
vt 0.029006 0.955603
vt 0.028952 0.955603
vt 0.028952 0.955542
vt 0.029006 0.955542
vt 0.028903 0.955542
vt 0.029003 0.955603
vt 0.028899 0.955590
vt 0.028899 0.955542
vt 0.029003 0.955542
vt 0.028934 0.955519
vt 0.028911 0.955538
vt 0.029036 0.955504
vt 0.029035 0.955511
vt 0.130443 0.891968
vt 0.128907 0.891914
vt 0.129214 0.889007
vt 0.130232 0.889043
vt 0.130740 0.892165
vt 0.128427 0.892165
vt 0.128679 0.890404
vt 0.130289 0.890405
vt 0.128936 0.889409
vt 0.130466 0.889376
vt 0.130250 0.892380
vt 0.129236 0.892397
vt 0.128644 0.889402
vt 0.130956 0.889397
vt 0.130507 0.891954
vt 0.128898 0.891962
vt 0.129193 0.889488
vt 0.128671 0.891828
vt 0.128919 0.891846
vt 0.129803 0.889487
vt 0.128715 0.892000
vt 0.128766 0.889314
vt 0.128703 0.888830
vt 0.128642 0.892483
vt 0.128980 0.889233
vt 0.130296 0.889206
vt 0.130525 0.888709
vt 0.128990 0.888745
vt 0.130230 0.889281
vt 0.128697 0.892061
vt 0.128464 0.892562
vt 0.130539 0.888786
vt 0.128606 0.892135
vt 0.128704 0.892083
vt 0.128581 0.892572
vt 0.128442 0.892636
vt 0.128787 0.891818
vt 0.129015 0.889495
vt 0.128948 0.889313
vt 0.128701 0.892003
vt 0.129088 0.889623
vt 0.129931 0.889609
vt 0.130182 0.889344
vt 0.128989 0.889364
vt 0.129851 0.889479
vt 0.128719 0.891852
vt 0.128697 0.892044
vt 0.130025 0.889294
vt 0.128791 0.891726
vt 0.128775 0.891695
vt 0.128697 0.891952
vt 0.128716 0.891997
vt 0.136326 0.889536
vt 0.136324 0.889530
vt 0.136323 0.889527
vt 0.136325 0.889535
vt 0.136329 0.889533
vt 0.136329 0.889526
vt 0.136328 0.889529
vt 0.136329 0.889534
vt 0.136325 0.893507
vt 0.136325 0.893507
vt 0.136323 0.893508
vt 0.028925 0.955740
vt 0.028925 0.955788
vt 0.028917 0.955691
vt 0.028917 0.955642
vt 0.136294 0.889799
vt 0.136307 0.889791
vt 0.136303 0.889838
vt 0.136286 0.889841
vt 0.136331 0.889957
vt 0.136352 0.889990
vt 0.136363 0.890020
vt 0.136351 0.889963
vt 0.136338 0.889846
vt 0.136338 0.889781
vt 0.136341 0.889775
vt 0.136339 0.889826
vt 0.136264 0.889824
vt 0.136249 0.889789
vt 0.136246 0.889797
vt 0.136264 0.889842
vt 0.028999 0.955814
vt 0.029003 0.955802
vt 0.028982 0.955788
vt 0.028978 0.955800
vt 0.136331 0.893506
vt 0.136334 0.893507
vt 0.136333 0.893507
vt 0.136331 0.893506
vt 0.136330 0.889535
vt 0.136328 0.889535
vt 0.136328 0.889536
vt 0.136330 0.889536
vt 0.136335 0.893508
vt 0.029007 0.955883
vt 0.029011 0.955848
vt 0.029038 0.955851
vt 0.029034 0.955886
vt 0.136315 0.889864
vt 0.136293 0.889880
vt 0.136260 0.889824
vt 0.136276 0.889814
vt 0.136332 0.889535
vt 0.136332 0.889535
vt 0.136333 0.889535
vt 0.136334 0.889535
vt 0.136327 0.889536
vt 0.136282 0.889921
vt 0.136283 0.889951
vt 0.136278 0.889940
vt 0.136294 0.889936
vt 0.028961 0.955740
vt 0.028962 0.955768
vt 0.028944 0.955760
vt 0.028942 0.955731
vt 0.136327 0.893506
vt 0.136327 0.893506
vt 0.028922 0.955654
vt 0.028921 0.955757
vt 0.028920 0.955716
vt 0.028921 0.955657
vt 0.028924 0.955920
vt 0.028914 0.955733
vt 0.028916 0.955761
vt 0.028923 0.955890
vt 0.028903 0.955551
vt 0.028901 0.955521
vt 0.028903 0.955543
vt 0.028904 0.955560
vt 0.028914 0.955624
vt 0.028928 0.955734
vt 0.028926 0.955727
vt 0.028917 0.955651
vt 0.029013 0.955900
vt 0.029026 0.955812
vt 0.029018 0.955833
vt 0.029012 0.955881
vt 0.029016 0.955760
vt 0.028980 0.955807
vt 0.028986 0.955803
vt 0.029010 0.955771
vt 0.028979 0.955793
vt 0.028974 0.955781
vt 0.028979 0.955786
vt 0.028982 0.955792
vt 0.028974 0.955777
vt 0.029002 0.955837
vt 0.028999 0.955827
vt 0.028981 0.955787
vt 0.028935 0.955875
vt 0.028940 0.955819
vt 0.028945 0.955837
vt 0.028942 0.955867
vt 0.029018 0.955736
vt 0.029059 0.955734
vt 0.029054 0.955745
vt 0.029027 0.955746
vt 0.029022 0.955830
vt 0.029014 0.955894
vt 0.029010 0.955881
vt 0.029014 0.955845
vt 0.029037 0.955878
vt 0.028999 0.955867
vt 0.029009 0.955864
vt 0.029034 0.955872
vt 0.028967 0.955769
vt 0.028971 0.955787
vt 0.028965 0.955781
vt 0.028963 0.955771
vt 0.028972 0.955806
vt 0.028939 0.955847
vt 0.028943 0.955831
vt 0.028964 0.955805
vt 0.028927 0.955780
vt 0.028928 0.955677
vt 0.028932 0.955699
vt 0.028932 0.955753
vt 0.028939 0.955726
vt 0.028967 0.955772
vt 0.028960 0.955768
vt 0.028943 0.955738
vt 0.028875 0.955783
vt 0.028857 0.955805
vt 0.028805 0.955576
vt 0.028822 0.955546
vt 0.028825 0.955400
vt 0.028841 0.955498
vt 0.028828 0.955458
vt 0.028815 0.955377
vt 0.028896 0.955813
vt 0.028898 0.955814
vt 0.028880 0.955776
vt 0.028880 0.955778
vt 0.028873 0.955546
vt 0.028878 0.955590
vt 0.028861 0.955451
vt 0.028861 0.955447
vt 0.028836 0.955827
vt 0.028815 0.955793
vt 0.028824 0.955743
vt 0.028832 0.955747
vt 0.028929 0.955771
vt 0.028935 0.955856
vt 0.028948 0.955901
vt 0.028943 0.955816
vt 0.028931 0.955862
vt 0.028937 0.955897
vt 0.028963 0.955955
vt 0.028958 0.955920
vt 0.028941 0.955901
vt 0.028955 0.955916
vt 0.028974 0.955950
vt 0.028960 0.955934
vt 0.028960 0.955918
vt 0.028994 0.955928
vt 0.028994 0.955954
vt 0.028960 0.955944
vt 0.028988 0.955870
vt 0.028929 0.955771
vt 0.028940 0.955813
vt 0.028999 0.955912
vt 0.028990 0.955908
vt 0.028988 0.955867
vt 0.028998 0.955935
vt 0.029001 0.955977
vt 0.136335 0.889535
vt 0.028940 0.955895
vt 0.028966 0.955939
vt 0.028982 0.955911
vt 0.028972 0.955855
vt 0.028947 0.955825
vt 0.028930 0.955841
vt 0.029047 0.955891
vt 0.028992 0.955877
vt 0.028999 0.955868
vt 0.029037 0.955878
vt 0.029034 0.955822
vt 0.029025 0.955885
vt 0.029013 0.955887
vt 0.029022 0.955823
vt 0.029014 0.955716
vt 0.029077 0.955715
vt 0.029018 0.955735
vt 0.028923 0.955863
vt 0.028928 0.955809
vt 0.028940 0.955812
vt 0.028934 0.955866
vt 0.028971 0.955779
vt 0.029006 0.955852
vt 0.029002 0.955837
vt 0.028974 0.955778
vt 0.028972 0.955783
vt 0.028968 0.955774
vt 0.028974 0.955775
vt 0.028979 0.955789
vt 0.029022 0.955747
vt 0.028977 0.955808
vt 0.028980 0.955809
vt 0.029022 0.955890
vt 0.029031 0.955827
vt 0.029026 0.955813
vt 0.029013 0.955903
vt 0.028936 0.955713
vt 0.028971 0.955773
vt 0.028939 0.955726
vt 0.028920 0.955762
vt 0.028921 0.955690
vt 0.028928 0.955675
vt 0.028927 0.955778
vt 0.028976 0.955813
vt 0.028933 0.955868
vt 0.028939 0.955847
vt 0.028972 0.955805
vt 0.028974 0.955773
vt 0.028977 0.955785
vt 0.028971 0.955786
vt 0.028967 0.955768
vt 0.028914 0.955621
vt 0.028930 0.955741
vt 0.028900 0.955515
vt 0.028899 0.955493
vt 0.028901 0.955517
vt 0.028903 0.955548
vt 0.028925 0.955947
vt 0.028914 0.955756
vt 0.028914 0.955733
vt 0.028925 0.955706
vt 0.028924 0.955778
vt 0.028921 0.955762
vt 0.028922 0.955658
vt 0.136335 0.889781
vt 0.136336 0.889779
vt 0.136336 0.889785
vt 0.136334 0.889788
vt 0.136335 0.889811
vt 0.136333 0.889967
vt 0.136334 0.889920
vt 0.136335 0.889811
vt 0.136325 0.889847
vt 0.136327 0.889847
vt 0.136328 0.889847
vt 0.136325 0.889847
vt 0.136320 0.889828
vt 0.136319 0.889827
vt 0.136320 0.889824
vt 0.136321 0.889826
vt 0.136323 0.889844
vt 0.136324 0.889845
vt 0.136324 0.889845
vt 0.136323 0.889844
vt 0.136323 0.889825
vt 0.136322 0.889826
vt 0.136322 0.889826
vt 0.136323 0.889825
vt 0.136324 0.889846
vt 0.136324 0.889846
vt 0.136325 0.889826
vt 0.136325 0.889826
vt 0.136322 0.889828
vt 0.136320 0.889828
vt 0.136320 0.889828
vt 0.136322 0.889827
vt 0.136321 0.889846
vt 0.136323 0.889845
vt 0.136320 0.889846
vt 0.028966 0.955754
vt 0.029025 0.955737
vt 0.029044 0.955709
vt 0.028990 0.955725
vt 0.028959 0.955863
vt 0.028966 0.955755
vt 0.028892 0.955809
vt 0.028885 0.955875
vt 0.136333 0.889545
vt 0.136331 0.889546
vt 0.136340 0.889500
vt 0.136338 0.889503
vt 0.136339 0.889488
vt 0.136341 0.889484
vt 0.029010 0.955871
vt 0.029008 0.955871
vt 0.028960 0.955871
vt 0.028969 0.955871
vt 0.136329 0.893494
vt 0.136331 0.893495
vt 0.136332 0.889515
vt 0.136332 0.889515
vt 0.136332 0.889515
vt 0.136328 0.889544
vt 0.136326 0.889545
vt 0.136326 0.889545
vt 0.136267 0.890919
vt 0.136269 0.890763
vt 0.136268 0.890789
vt 0.136266 0.890946
vt 0.028930 0.955873
vt 0.028914 0.955657
vt 0.028915 0.955707
vt 0.028928 0.955887
vt 0.028896 0.955635
vt 0.028898 0.955666
vt 0.028896 0.955832
vt 0.028893 0.955760
vt 0.028914 0.955583
vt 0.028913 0.955582
vt 0.028933 0.955706
vt 0.028931 0.955690
vt 0.136323 0.893495
vt 0.136325 0.893495
vt 0.136325 0.893492
vt 0.136331 0.893484
vt 0.136327 0.893490
vt 0.136330 0.893483
vt 0.028977 0.955811
vt 0.028929 0.955876
vt 0.028931 0.955870
vt 0.028979 0.955805
vt 0.136330 0.889543
vt 0.136329 0.889545
vt 0.029029 0.955738
vt 0.028978 0.955810
vt 0.028972 0.955820
vt 0.029024 0.955747
vt 0.136329 0.889547
vt 0.136327 0.893494
vt 0.136327 0.893495
vt 0.136327 0.893495
vt 0.028966 0.955746
vt 0.028971 0.955777
vt 0.029008 0.955857
vt 0.029003 0.955826
vt 0.028939 0.955751
vt 0.028935 0.955725
vt 0.028972 0.955793
vt 0.028977 0.955819
vt 0.028934 0.955886
vt 0.028914 0.955846
vt 0.028949 0.955902
vt 0.028955 0.955917
vt 0.028987 0.955857
vt 0.028972 0.955809
vt 0.028927 0.955769
vt 0.028930 0.955788
vt 0.028931 0.955852
vt 0.028913 0.955786
vt 0.028915 0.955827
vt 0.028935 0.955891
vt 0.028991 0.955907
vt 0.028980 0.955842
vt 0.028971 0.955793
vt 0.028985 0.955863
vt 0.028962 0.955920
vt 0.028957 0.955904
vt 0.028987 0.955865
vt 0.028990 0.955917
vt 0.028938 0.955784
vt 0.028927 0.955770
vt 0.028914 0.955800
vt 0.028926 0.955846
vt 0.224113 0.883255
vt 0.224113 0.884381
vt 0.223992 0.884008
vt 0.223978 0.884014
vt 0.224113 0.883375
vt 0.224113 0.884525
vt 0.223967 0.884012
vt 0.224187 0.884014
vt 0.224113 0.883128
vt 0.224113 0.884779
vt 0.223991 0.884011
vt 0.223999 0.884016
vt 0.224100 0.884011
vt 0.224872 0.883375
vt 0.224872 0.884525
vt 0.223991 0.884014
vt 0.224003 0.884021
vt 0.223996 0.884012
vt 0.224872 0.883128
vt 0.224872 0.884779
vt 0.224872 0.883255
vt 0.224872 0.884381
vt 0.223980 0.884021
s 0
usemtl TexturePallete_512x512_MedievalPack.png
f 3/1/1 20/2/1 17/3/1 19/4/1
f 20/5/2 3/1/2 2/6/2 21/7/2
f 10/8/3 5/9/3 16/10/3 14/8/3
f 9/11/4 6/12/4 11/13/4 7/14/4
f 5/15/5 10/16/5 8/17/5 12/18/5
f 6/19/6 5/20/6 12/21/6 11/22/6
f 13/8/7 14/8/7 16/10/7 15/23/7
f 5/24/8 6/25/8 15/26/8 16/24/8
f 6/27/9 9/28/9 13/8/9 15/23/9
f 21/7/10 2/29/10 1/30/10 22/31/10
f 21/7/11 24/32/11 23/33/11 20/34/11
f 12/35/12 8/36/12 18/37/12 23/38/12
f 20/39/13 23/40/13 18/41/13 17/42/13
f 7/43/14 11/44/14 24/45/14 4/46/14
f 21/7/15 22/31/15 4/46/15 24/47/15
f 30/48/16 29/49/16 25/50/16 28/51/16
f 25/52/8 26/53/8 27/54/8 28/55/8
f 29/56/17 31/57/17 26/58/17 25/59/17
f 31/60/18 32/61/18 27/62/18 26/63/18
f 32/64/19 30/65/19 28/66/19 27/67/19
f 23/33/20 24/32/20 30/65/20 32/64/20
f 12/35/21 23/38/21 32/61/21 31/68/21
f 11/22/22 12/21/22 31/57/22 29/56/22
f 24/45/23 11/44/23 29/69/23 30/48/23
f 34/1/24 19/4/24 17/3/24 41/2/24
f 41/5/25 42/7/25 33/6/25 34/1/25
f 10/8/26 14/8/26 40/10/26 35/9/26
f 9/11/27 7/14/27 37/13/27 36/12/27
f 35/15/28 38/18/28 8/17/28 10/16/28
f 36/19/29 37/22/29 38/21/29 35/20/29
f 13/8/7 39/23/7 40/10/7 14/8/7
f 35/24/30 40/24/30 39/26/30 36/25/30
f 36/27/31 39/23/31 13/8/31 9/28/31
f 42/7/32 22/31/32 1/30/32 33/29/32
f 42/7/33 41/34/33 43/33/33 44/32/33
f 38/35/34 43/38/34 18/37/34 8/36/34
f 41/39/35 17/42/35 18/41/35 43/40/35
f 7/43/36 4/46/36 44/45/36 37/44/36
f 42/7/37 44/47/37 4/46/37 22/31/37
f 50/48/38 48/51/38 45/50/38 49/49/38
f 45/52/30 48/55/30 47/54/30 46/53/30
f 49/56/39 45/59/39 46/58/39 51/57/39
f 51/60/40 46/63/40 47/62/40 52/61/40
f 52/64/41 47/67/41 48/66/41 50/65/41
f 43/33/42 52/64/42 50/65/42 44/32/42
f 38/35/43 51/68/43 52/61/43 43/38/43
f 37/22/44 49/56/44 51/57/44 38/21/44
f 44/45/45 50/48/45 49/69/45 37/44/45
f 330/441/321 326/442/321 315/443/321 312/444/321
f 349/445/322 327/446/322 317/447/322 340/448/322
f 350/449/30 351/450/30 316/451/30 313/452/30
f 324/453/323 328/454/323 318/455/323 314/456/323
f 340/457/8 317/458/8 319/459/8 341/460/8
f 358/461/324 332/462/324 343/463/324 359/464/324
f 353/465/8 356/466/8 314/467/8
f 331/468/325 334/469/325 320/470/325 319/471/325
f 338/472/30 343/473/30 321/474/30 312/475/30
f 332/476/326 346/477/326 345/478/326 343/479/326
f 334/480/327 336/481/327 322/482/327 320/483/327
f 343/484/328 345/485/328 323/486/328 321/487/328
f 347/488/329 344/489/329 322/490/329 336/491/329
f 345/492/330 346/493/330 337/494/330 323/495/330
f 368/496/331 347/497/331 336/498/331 366/499/331
f 321/500/332 323/501/332 337/502/332 335/503/332
f 365/504/333 366/505/333 336/506/333 334/480/333
f 342/507/326 344/508/326 347/509/326 333/510/326
f 364/511/326 368/512/326 346/513/326 332/514/326
f 312/515/334 321/516/334 335/517/334 330/518/334
f 363/519/335 365/520/335 334/521/335 331/522/335
f 356/523/324 342/524/324 333/525/324 357/526/324
f 370/527/324 364/528/324 332/462/324 358/461/324
f 313/529/336 316/530/336 329/531/336 325/532/336
f 360/533/337 362/534/337 328/535/337 324/536/337
f 339/537/322 315/538/322 326/539/322 348/540/322
f 367/541/322 361/542/322 327/543/322 349/544/322
f 319/545/321 317/546/321 327/547/321 331/548/321
f 363/549/321 361/550/321 326/442/321 330/441/321
f 369/551/322 367/541/322 349/552/322 355/553/322
f 351/554/322 339/537/322 348/555/322 354/556/322
f 320/557/338 322/558/338 344/559/338 342/560/338
f 350/561/30 359/562/30 343/563/30 338/564/30
f 319/565/8 320/566/8 342/567/8 341/568/8
f 352/569/8 340/457/8 341/460/8 353/570/8
f 312/571/30 315/572/30 339/573/30 338/574/30
f 355/575/322 349/445/322 340/576/322 352/577/322
f 328/578/322 355/575/322 352/579/322 318/580/322
f 318/581/8 352/569/8 353/570/8 314/582/8
f 316/583/322 351/554/322 354/584/322 329/585/322
f 362/586/322 369/551/322 355/587/322 328/588/322
f 338/574/30 339/573/30 351/450/30 350/449/30
f 325/589/324 358/590/324 359/464/324 313/591/324
f 360/592/324 370/593/324 358/590/324 325/589/324
f 314/594/324 356/595/324 357/526/324 324/596/324
f 341/597/8 342/598/8 356/599/8 353/600/8
f 313/601/30 359/602/30 350/603/30
f 324/596/324 357/526/324 370/527/324 360/604/324
f 329/605/322 354/606/322 369/607/322 362/608/322
f 354/606/322 348/609/322 367/610/322 369/611/322
f 331/548/321 327/547/321 361/550/321 363/549/321
f 348/609/322 326/612/322 361/613/322 367/614/322
f 325/615/339 329/616/339 362/617/339 360/618/339
f 357/526/324 333/525/324 364/528/324 370/527/324
f 330/619/340 335/620/340 365/621/340 363/622/340
f 333/510/326 347/509/326 368/623/326 364/511/326
f 335/624/341 337/625/341 366/626/341 365/627/341
f 346/628/342 368/629/342 366/630/342 337/631/342
f 382/632/343 380/633/343 372/634/343 373/635/343
f 381/636/344 382/637/344 373/638/344 374/639/344
f 379/640/345 381/641/345 374/642/345 371/643/345
f 380/644/346 379/645/346 371/646/346 372/647/346
f 378/648/347 376/649/347 375/650/347 377/651/347
f 384/652/348 383/653/348 379/654/348 380/655/348
f 383/656/349 385/657/349 381/658/349 379/659/349
f 385/660/350 386/661/350 382/662/350 381/663/350
f 386/664/351 384/665/351 380/666/351 382/667/351
f 376/668/352 378/669/352 383/670/352 384/671/352
f 378/672/353 377/673/353 385/674/353 383/675/353
f 377/676/354 375/677/354 386/678/354 385/679/354
f 375/680/355 376/681/355 384/682/355 386/683/355
f 398/632/343 389/635/343 388/634/343 396/633/343
f 397/636/356 390/639/356 389/638/356 398/637/356
f 395/640/357 387/643/357 390/642/357 397/641/357
f 396/644/358 388/647/358 387/646/358 395/645/358
f 394/648/359 393/651/359 391/650/359 392/649/359
f 400/652/360 396/655/360 395/654/360 399/653/360
f 399/656/361 395/659/361 397/658/361 401/657/361
f 401/660/362 397/663/362 398/662/362 402/661/362
f 402/664/363 398/667/363 396/666/363 400/665/363
f 392/668/364 400/671/364 399/670/364 394/669/364
f 394/672/365 399/675/365 401/674/365 393/673/365
f 393/676/366 401/679/366 402/678/366 391/677/366
f 391/680/367 402/683/367 400/682/367 392/681/367
f 414/684/368 412/685/368 411/686/368 462/687/368
f 413/688/369 403/689/369 404/690/369 415/691/369
f 414/692/370 435/693/370 412/694/370
f 436/695/322 437/696/322 438/697/322 439/698/322
f 502/699/371 429/700/371 414/701/371 501/702/371
f 503/703/372 424/704/372 413/705/372 499/706/372
f 499/707/373 413/708/373 415/709/373 500/710/373
f 501/711/374 414/712/374 462/713/374 504/714/374
f 440/715/322 441/716/322 442/717/322 443/718/322
f 429/719/370 415/720/370 428/721/370 419/722/370
f 424/723/375 462/724/375 434/725/375 418/726/375
f 415/720/370 404/727/370 428/721/370
f 444/728/322 445/729/322 446/730/322 447/731/322
f 500/732/376 415/733/376 429/734/376 502/735/376
f 424/736/377 418/737/377 427/738/377 413/739/377
f 462/724/378 411/740/378 434/725/378
f 504/741/379 462/742/379 424/743/379 503/744/379
f 448/745/322 449/746/322 450/747/322 451/748/322
f 429/749/370 419/750/370 435/693/370 414/692/370
f 475/751/380 476/752/380 437/753/380 436/754/380
f 476/755/381 477/756/381 438/757/381 437/758/381
f 477/759/382 478/760/382 439/761/382 438/762/382
f 478/763/383 475/764/383 436/765/383 439/766/383
f 467/767/384 468/768/384 441/769/384 440/770/384
f 468/771/385 469/772/385 442/773/385 441/774/385
f 469/775/386 470/776/386 443/777/386 442/778/386
f 470/779/387 467/780/387 440/781/387 443/782/387
f 463/783/388 464/784/388 445/785/388 444/786/388
f 464/787/389 465/788/389 446/789/389 445/790/389
f 465/791/390 466/792/390 447/793/390 446/794/390
f 466/795/391 463/796/391 444/797/391 447/798/391
f 471/799/392 472/800/392 449/801/392 448/802/392
f 472/803/393 473/804/393 450/805/393 449/806/393
f 473/807/394 474/808/394 451/809/394 450/810/394
f 474/811/395 471/812/395 448/813/395 451/814/395
f 452/815/396 455/816/396 454/817/396 453/818/396
f 410/819/397 409/820/397 453/821/397 454/822/397
f 411/823/398 412/824/398 455/825/398 452/826/398
f 409/827/399 411/828/399 452/829/399 453/830/399
f 412/831/400 410/832/400 454/833/400 455/834/400
f 430/835/401 421/836/401 457/837/401 460/838/401
f 421/839/402 420/840/402 456/841/402 457/842/402
f 420/843/403 431/844/403 461/845/403 456/846/403
f 431/847/404 422/848/404 458/849/404 461/850/404
f 423/851/405 430/852/405 460/853/405 459/854/405
f 422/855/406 423/856/406 459/857/406 458/858/406
f 413/739/378 427/738/378 403/859/378
f 456/860/407 461/861/407 458/862/407 459/863/407 460/864/407 457/865/407
f 425/866/408 406/867/408 463/868/408 466/869/408
f 426/870/409 425/871/409 466/872/409 465/873/409
f 405/874/410 426/875/410 465/788/410 464/876/410
f 406/877/411 405/878/411 464/879/411 463/880/411
f 416/881/412 425/882/412 467/883/412 470/884/412
f 417/885/413 416/886/413 470/887/413 469/888/413
f 426/889/414 417/890/414 469/891/414 468/771/414
f 425/892/415 426/893/415 468/894/415 467/895/415
f 432/896/416 416/897/416 471/812/416 474/898/416
f 433/899/417 432/900/417 474/901/417 473/902/417
f 417/903/418 433/904/418 473/905/418 472/906/418
f 416/907/419 417/908/419 472/909/419 471/910/419
f 407/911/420 432/912/420 475/764/420 478/763/420
f 408/913/421 407/914/421 478/915/421 477/916/421
f 433/917/422 408/918/422 477/919/422 476/755/422
f 432/920/423 433/921/423 476/922/423 475/923/423
f 480/924/424 481/925/424 482/926/424 479/927/424
f 484/928/425 485/929/425 486/930/425 483/931/425
f 492/932/426 480/933/426 479/934/426 491/935/426
f 496/936/427 486/937/427 485/938/427 495/939/427
f 498/940/428 487/941/428 488/942/428 497/943/428
f 494/944/429 489/945/429 490/946/429 493/947/429
f 487/948/430 492/932/430 491/935/430 488/949/430
f 481/950/431 494/944/431 493/947/431 482/951/431
f 489/952/432 496/953/432 495/954/432 490/955/432
f 483/956/433 498/957/433 497/943/433 484/958/433
f 480/959/434 492/960/434 426/961/434 405/962/434
f 481/963/435 480/964/435 405/965/435 406/966/435
f 403/967/8 427/968/8 491/968/8 479/967/8
f 404/969/321 403/970/321 479/971/321 482/972/321
f 425/973/436 494/974/436 481/975/436 406/976/436
f 428/977/30 404/978/30 482/978/30 493/977/30
f 484/979/8 411/980/8 409/981/8
f 434/982/8 411/983/8 484/984/8 497/982/8
f 485/985/437 484/986/437 409/987/437 410/988/437
f 498/989/438 483/990/438 408/991/438 433/992/438
f 407/993/439 408/994/439 483/995/439 486/996/439
f 407/997/440 486/998/440 496/999/440 432/1000/440
f 412/1001/30 435/1002/30 495/1002/30 485/1003/30
f 412/1004/30 485/1005/30 410/1006/30
f 487/1007/441 498/1008/441 433/1009/441 417/1010/441
f 418/1011/8 434/982/8 497/982/8 488/1012/8
f 492/1013/442 487/1014/442 417/1015/442 426/1016/442
f 427/968/8 418/1017/8 488/1012/8 491/968/8
f 419/1018/30 428/977/30 493/977/30 490/1019/30
f 435/1002/30 419/1020/30 490/1019/30 495/1002/30
f 416/1021/443 489/1022/443 494/1023/443 425/1024/443
f 432/1025/440 496/1026/440 489/1027/440 416/1028/440
f 420/1029/444 504/1030/444 503/1031/444 431/1032/444
f 423/1033/445 500/1034/445 502/1035/445 430/1036/445
f 421/1037/446 501/1038/446 504/1039/446 420/1040/446
f 422/1041/447 499/1042/447 500/1043/447 423/1044/447
f 431/1045/448 503/1046/448 499/1047/448 422/1048/448
f 430/1049/449 502/1050/449 501/1051/449 421/1052/449
f 516/684/450 564/687/450 513/686/450 514/685/450
f 515/688/451 517/691/451 506/690/451 505/689/451
f 516/692/452 514/694/452 537/693/452
f 538/695/322 541/698/322 540/697/322 539/696/322
f 604/699/453 603/702/453 516/701/453 531/700/453
f 605/703/454 601/706/454 515/705/454 526/704/454
f 601/707/455 602/710/455 517/709/455 515/708/455
f 603/711/456 606/714/456 564/713/456 516/712/456
f 542/715/322 545/718/322 544/717/322 543/716/322
f 531/719/452 521/722/452 530/721/452 517/720/452
f 526/723/457 520/726/457 536/725/457 564/724/457
f 517/720/452 530/721/452 506/727/452
f 546/728/322 549/731/322 548/730/322 547/729/322
f 602/732/458 604/735/458 531/734/458 517/733/458
f 526/736/459 515/739/459 529/738/459 520/737/459
f 564/724/460 536/725/460 513/740/460
f 606/741/461 605/744/461 526/743/461 564/742/461
f 550/745/322 553/748/322 552/747/322 551/746/322
f 531/749/452 516/692/452 537/693/452 521/750/452
f 577/751/462 538/754/462 539/753/462 578/752/462
f 578/755/463 539/758/463 540/757/463 579/756/463
f 579/759/464 540/762/464 541/761/464 580/760/464
f 580/763/465 541/766/465 538/765/465 577/764/465
f 569/767/466 542/770/466 543/769/466 570/768/466
f 570/771/467 543/774/467 544/773/467 571/772/467
f 571/775/468 544/778/468 545/777/468 572/776/468
f 572/779/469 545/782/469 542/781/469 569/780/469
f 565/783/470 546/786/470 547/785/470 566/784/470
f 566/787/471 547/790/471 548/789/471 567/788/471
f 567/791/472 548/794/472 549/793/472 568/792/472
f 568/795/473 549/798/473 546/797/473 565/796/473
f 573/799/474 550/802/474 551/801/474 574/800/474
f 574/803/475 551/806/475 552/805/475 575/804/475
f 575/807/476 552/810/476 553/809/476 576/808/476
f 576/811/477 553/814/477 550/813/477 573/812/477
f 554/815/478 555/818/478 556/817/478 557/816/478
f 512/819/479 556/822/479 555/821/479 511/820/479
f 513/823/480 554/826/480 557/825/480 514/824/480
f 511/827/481 555/830/481 554/829/481 513/828/481
f 514/831/482 557/834/482 556/833/482 512/832/482
f 532/835/483 562/838/483 559/837/483 523/836/483
f 523/839/484 559/842/484 558/841/484 522/840/484
f 522/843/485 558/846/485 563/845/485 533/844/485
f 533/847/486 563/850/486 560/849/486 524/848/486
f 525/851/487 561/854/487 562/853/487 532/852/487
f 524/855/488 560/858/488 561/857/488 525/856/488
f 515/739/460 505/859/460 529/738/460
f 558/860/489 559/865/489 562/864/489 561/863/489 560/862/489 563/861/489
f 527/866/490 568/869/490 565/868/490 508/867/490
f 528/870/491 567/873/491 568/872/491 527/871/491
f 507/874/492 566/876/492 567/788/492 528/875/492
f 508/877/493 565/880/493 566/879/493 507/878/493
f 518/881/494 572/884/494 569/883/494 527/882/494
f 519/885/495 571/888/495 572/887/495 518/886/495
f 528/889/496 570/771/496 571/891/496 519/890/496
f 527/892/497 569/895/497 570/894/497 528/893/497
f 534/896/498 576/898/498 573/812/498 518/897/498
f 535/899/499 575/902/499 576/901/499 534/900/499
f 519/903/500 574/906/500 575/905/500 535/904/500
f 518/907/501 573/910/501 574/909/501 519/908/501
f 509/911/502 580/763/502 577/764/502 534/912/502
f 510/913/503 579/916/503 580/915/503 509/914/503
f 535/917/504 578/755/504 579/919/504 510/918/504
f 534/920/505 577/923/505 578/922/505 535/921/505
f 582/924/506 581/927/506 584/926/506 583/925/506
f 586/928/507 585/931/507 588/930/507 587/929/507
f 594/932/508 593/935/508 581/934/508 582/933/508
f 598/936/509 597/939/509 587/938/509 588/937/509
f 600/940/510 599/943/510 590/942/510 589/941/510
f 596/944/511 595/947/511 592/946/511 591/945/511
f 589/948/512 590/949/512 593/935/512 594/932/512
f 583/950/513 584/951/513 595/947/513 596/944/513
f 591/952/514 592/955/514 597/954/514 598/953/514
f 585/956/515 586/958/515 599/943/515 600/957/515
f 582/959/516 507/962/516 528/961/516 594/960/516
f 583/963/517 508/966/517 507/965/517 582/964/517
f 505/967/30 581/967/30 593/968/30 529/968/30
f 506/969/321 584/972/321 581/971/321 505/970/321
f 527/973/518 508/976/518 583/975/518 596/974/518
f 530/977/8 595/977/8 584/978/8 506/978/8
f 586/979/30 511/981/30 513/980/30
f 536/982/30 599/982/30 586/984/30 513/983/30
f 587/985/519 512/988/519 511/987/519 586/986/519
f 600/989/520 535/992/520 510/991/520 585/990/520
f 509/993/521 588/996/521 585/995/521 510/994/521
f 509/997/522 534/1000/522 598/999/522 588/998/522
f 514/1001/8 587/1003/8 597/1002/8 537/1002/8
f 514/1004/8 512/1006/8 587/1005/8
f 589/1007/523 519/1010/523 535/1009/523 600/1008/523
f 520/1011/30 590/1012/30 599/982/30 536/982/30
f 594/1013/524 528/1016/524 519/1015/524 589/1014/524
f 529/968/30 593/968/30 590/1012/30 520/1017/30
f 521/1018/8 592/1019/8 595/977/8 530/977/8
f 537/1002/8 597/1002/8 592/1019/8 521/1020/8
f 518/1021/525 527/1024/525 596/1023/525 591/1022/525
f 534/1025/522 518/1028/522 591/1027/522 598/1026/522
f 522/1029/526 533/1032/526 605/1031/526 606/1030/526
f 525/1033/527 532/1036/527 604/1035/527 602/1034/527
f 523/1037/528 522/1040/528 606/1039/528 603/1038/528
f 524/1041/529 525/1044/529 602/1043/529 601/1042/529
f 533/1045/530 524/1048/530 601/1047/530 605/1046/530
f 532/1049/531 523/1052/531 603/1051/531 604/1050/531
f 618/1053/532 620/1054/532 621/1055/532 619/1056/532
f 617/1057/533 615/1058/533 607/1059/533 616/1060/533
f 620/1061/534 617/1062/534 616/1063/534 621/1064/534
f 607/1059/7 608/1065/7 616/1060/7
f 615/1058/535 617/1057/535 611/1066/535 612/1067/535
f 608/1068/7 609/1069/7 621/1070/7 616/1063/7
f 617/1062/536 620/1061/536 610/1071/536 611/1072/536
f 620/1054/537 618/1053/537 613/1073/537 610/1074/537
f 609/1069/7 614/1075/7 619/1056/7 621/1070/7
f 618/1053/538 619/1056/538 629/1055/538 628/1054/538
f 627/1057/539 626/1060/539 607/1059/539 615/1058/539
f 628/1061/540 629/1064/540 626/1063/540 627/1062/540
f 607/1059/7 626/1060/7 622/1065/7
f 615/1058/541 612/1067/541 625/1066/541 627/1057/541
f 622/1068/7 626/1063/7 629/1070/7 623/1069/7
f 627/1062/542 625/1072/542 624/1071/542 628/1061/542
f 628/1054/543 624/1074/543 613/1073/543 618/1053/543
f 623/1069/7 629/1070/7 619/1056/7 614/1075/7
f 648/441/321 630/444/321 633/443/321 644/442/321
f 667/445/322 658/448/322 635/447/322 645/446/322
f 668/449/8 631/452/8 634/451/8 669/450/8
f 642/453/544 632/456/544 636/455/544 646/454/544
f 658/457/30 659/460/30 637/459/30 635/458/30
f 676/461/324 677/464/324 661/463/324 650/462/324
f 671/465/30 632/467/30 674/466/30
f 649/468/545 637/471/545 638/470/545 652/469/545
f 656/472/8 630/475/8 639/474/8 661/473/8
f 650/476/326 661/479/326 663/478/326 664/477/326
f 652/480/546 638/483/546 640/482/546 654/481/546
f 661/484/547 639/487/547 641/486/547 663/485/547
f 665/488/548 654/491/548 640/490/548 662/489/548
f 663/492/549 641/495/549 655/494/549 664/493/549
f 686/496/550 684/499/550 654/498/550 665/497/550
f 639/500/551 653/503/551 655/502/551 641/501/551
f 683/504/552 652/480/552 654/506/552 684/505/552
f 660/507/326 651/510/326 665/509/326 662/508/326
f 682/511/326 650/514/326 664/513/326 686/512/326
f 630/515/553 648/518/553 653/517/553 639/516/553
f 681/519/554 649/522/554 652/521/554 683/520/554
f 674/523/324 675/526/324 651/525/324 660/524/324
f 688/527/324 676/461/324 650/462/324 682/528/324
f 631/529/555 643/532/555 647/531/555 634/530/555
f 678/533/556 642/536/556 646/535/556 680/534/556
f 657/537/322 666/540/322 644/539/322 633/538/322
f 685/541/322 667/544/322 645/543/322 679/542/322
f 637/545/321 649/548/321 645/547/321 635/546/321
f 681/549/321 648/441/321 644/442/321 679/550/321
f 687/551/322 673/553/322 667/552/322 685/541/322
f 669/554/322 672/556/322 666/555/322 657/537/322
f 638/557/557 660/560/557 662/559/557 640/558/557
f 668/561/8 656/564/8 661/563/8 677/562/8
f 637/565/30 659/568/30 660/567/30 638/566/30
f 670/569/30 671/570/30 659/460/30 658/457/30
f 630/571/8 656/574/8 657/573/8 633/572/8
f 673/575/322 670/577/322 658/576/322 667/445/322
f 646/578/322 636/580/322 670/579/322 673/575/322
f 636/581/30 632/582/30 671/570/30 670/569/30
f 634/583/322 647/585/322 672/584/322 669/554/322
f 680/586/322 646/588/322 673/587/322 687/551/322
f 656/574/8 668/449/8 669/450/8 657/573/8
f 643/589/324 631/591/324 677/464/324 676/590/324
f 678/592/324 643/589/324 676/590/324 688/593/324
f 632/594/324 642/596/324 675/526/324 674/595/324
f 659/597/30 671/600/30 674/599/30 660/598/30
f 631/601/8 668/603/8 677/602/8
f 642/596/324 678/604/324 688/527/324 675/526/324
f 647/605/322 680/608/322 687/607/322 672/606/322
f 672/606/322 687/611/322 685/610/322 666/609/322
f 649/548/321 681/549/321 679/550/321 645/547/321
f 666/609/322 685/614/322 679/613/322 644/612/322
f 643/615/558 678/618/558 680/617/558 647/616/558
f 675/526/324 688/527/324 682/528/324 651/525/324
f 648/619/559 681/622/559 683/621/559 653/620/559
f 651/510/326 682/511/326 686/623/326 665/509/326
f 653/624/560 683/627/560 684/626/560 655/625/560
f 664/628/561 655/631/561 684/630/561 686/629/561
usemtl TexturePallete_LowPoly_512x512_MedievalPack.png
f 165/70/46 53/71/46 54/72/46 166/73/46
f 61/74/47 57/75/47 55/76/47
f 66/77/48 95/78/48 69/79/48 180/80/48 132/81/48 181/82/48
f 137/83/49 55/84/49 57/85/49 70/86/49
f 55/87/50 143/88/50 141/89/50 56/90/50
f 166/73/51 54/72/51 59/91/51 60/92/51
f 129/93/52 187/94/52 144/95/52 131/96/52
f 60/97/53 59/98/53 61/99/53 56/100/53
f 58/101/54 71/102/54 74/103/54
f 76/104/55 72/105/55 197/106/55 196/107/55
f 87/108/56 64/109/56 93/110/56 68/111/56
f 58/112/57 137/113/57 70/114/57
f 97/115/58 81/116/58 77/117/58 136/118/58 130/119/58
f 78/120/59 79/121/59 73/122/59 74/123/59
f 80/124/60 176/125/60 78/126/60
f 137/127/61 58/128/61 74/103/61
f 56/129/62 61/130/62 55/131/62
f 62/132/63 167/133/63 181/82/63 132/81/63
f 74/134/64 73/122/64 146/135/64 147/136/64
f 64/137/65 87/138/65 180/139/65
f 64/140/66 180/141/66 69/142/66
f 64/143/67 69/144/67 68/145/67 93/146/67
f 135/147/68 164/148/68 133/149/68 97/150/68 130/151/68
f 193/152/69 192/153/69 152/154/69 177/155/69
f 194/156/70 193/152/70 177/155/70 176/124/70
f 176/157/71 177/158/71 79/159/71 78/120/71
f 119/160/72 98/161/72 99/162/72 118/163/72
f 165/70/73 167/133/73 168/164/73 53/71/73
f 83/165/74 173/166/74 172/167/74 157/168/74
f 77/169/75 81/170/75 98/171/75 100/172/75
f 80/173/76 86/174/76 84/175/76 173/176/76
f 85/177/77 178/178/77 179/179/77 160/180/77
f 154/181/78 150/182/78 96/183/78 174/184/78
f 67/185/79 88/186/79 63/187/79 87/188/79
f 68/189/80 67/185/80 87/190/80
f 90/191/81 68/192/81 94/193/81 82/194/81
f 93/195/82 89/196/82 91/197/82 92/198/82
f 88/199/83 67/200/83 92/198/83 91/197/83
f 68/201/84 90/202/84 89/203/84 93/195/84
f 67/200/85 68/201/85 93/195/85 92/198/85
f 69/204/86 95/205/86 134/206/86 94/193/86 68/192/86
f 85/207/87 150/208/87 153/209/87 178/210/87
f 99/211/75 98/212/75 81/213/75 97/214/75 133/149/75
f 105/215/88 107/216/88 127/217/88 128/218/88
f 100/172/89 98/161/89 119/163/89 102/219/89
f 129/220/90 118/221/90 99/222/90
f 104/223/91 105/224/91 128/225/91 121/226/91
f 162/227/92 103/228/92 124/229/92 126/230/92
f 161/231/93 171/232/93 114/233/93 113/234/93
f 109/235/94 112/236/94 111/237/94 110/238/94
f 96/239/95 150/240/95 153/241/95 109/242/95 113/243/95
f 106/244/96 116/245/96 110/238/96 111/237/96
f 171/232/97 115/246/97 114/247/97
f 150/208/98 85/248/98 112/249/98 109/250/98 153/251/98
f 129/252/99 131/246/99 114/253/99 115/254/99
f 107/255/100 105/256/100 129/257/100 115/258/100
f 101/259/101 108/260/101 117/257/101 116/261/101
f 105/262/102 104/263/102 118/264/102 129/257/102
f 104/265/103 103/266/103 119/267/103 118/268/103
f 103/269/104 162/270/104 102/271/104 119/272/104
f 108/273/105 107/255/105 115/258/105 117/204/105
f 120/274/106 101/275/106 116/261/106 106/276/106
f 124/277/107 121/278/107 122/279/107 123/280/107
f 126/281/108 124/277/108 123/280/108 125/282/108
f 121/283/109 128/218/109 127/284/109 122/285/109
f 107/286/110 108/287/110 122/288/110 127/289/110
f 103/228/111 104/290/111 121/291/111 124/292/111
f 108/293/112 101/294/112 123/295/112 122/296/112
f 101/297/113 120/298/113 125/299/113 123/300/113
f 114/301/114 131/302/114 96/239/114 113/243/114
f 129/303/115 99/304/115 133/149/115 66/305/115
f 94/306/116 130/307/116 136/308/116 82/309/116
f 154/310/117 152/311/117 83/312/117 157/168/117
f 192/153/118 191/313/118 80/153/118 152/314/118
f 80/315/119 78/316/119 74/317/119 71/318/119
f 164/319/120 135/320/120 163/321/120
f 163/322/121 135/323/121 134/324/121
f 135/325/122 130/326/122 94/327/122 134/328/122
f 137/329/123 145/330/123 143/331/123 55/332/123
f 74/103/124 147/333/124 145/330/124 137/329/124
f 73/334/125 174/184/125 96/183/125
f 142/335/126 56/336/126 141/337/126
f 66/338/127 60/339/127 56/100/127 142/95/127 187/94/127 129/93/127
f 140/340/128 148/341/128 139/342/128 175/343/128
f 138/344/129 190/345/129 148/341/129 140/340/129
f 138/346/130 144/347/130 187/348/130
f 138/346/131 140/349/131 146/350/131 144/347/131
f 140/351/132 175/352/132 147/353/132 146/350/132
f 153/354/133 150/355/133 154/356/133 157/357/133
f 149/358/134 155/359/134 179/360/134 156/361/134
f 159/360/135 149/358/135 156/361/135 157/357/135
f 158/362/136 172/362/136 151/362/136 160/363/136 179/364/136 155/359/136
f 155/365/137 149/366/137 159/367/137 158/368/137
f 144/369/138 146/369/138 73/370/138 131/371/138
f 110/238/139 116/372/139 117/373/139 161/231/139
f 110/238/140 161/231/140 113/234/140 109/235/140
f 66/305/141 133/149/141 164/374/141
f 66/375/142 163/376/142 134/325/142 95/377/142
f 66/305/143 164/319/143 163/321/143
f 169/378/144 132/81/144 87/379/144 63/380/144
f 66/77/145 181/82/145 166/73/145 60/92/145
f 181/82/146 167/133/146 165/70/146 166/73/146
f 168/164/147 167/133/147 62/132/147 170/381/147
f 87/379/148 132/81/148 180/80/148
f 169/378/149 170/381/149 62/132/149 132/81/149
f 161/231/150 117/373/150 115/246/150 171/232/150
f 152/311/151 80/173/151 173/382/151 83/383/151
f 172/384/152 173/166/152 84/385/152 151/386/152
f 172/362/153 158/362/153 159/360/153 157/357/153
f 152/311/154 154/181/154 174/184/154 73/334/154 79/387/154
f 79/388/155 177/158/155 152/311/155
f 191/389/156 194/156/156 176/124/156 80/153/156
f 131/390/157 73/334/157 96/183/157
f 86/174/158 80/173/158 71/391/158
f 156/361/159 153/392/159 157/357/159
f 179/179/160 178/178/160 153/178/160 156/393/160
f 185/394/161 186/395/161 190/396/161
f 187/397/162 185/394/162 190/396/162
f 184/398/163 186/395/163 182/399/163 183/400/163
f 186/395/164 185/394/164 182/399/164
f 188/401/165 184/398/165 183/400/165 189/402/165
f 139/403/166 148/404/166 186/395/166 184/398/166
f 182/399/167 185/394/167 142/405/167 141/406/167
f 183/400/168 182/399/168 141/407/168 143/408/168
f 186/395/169 148/409/169 190/410/169
f 143/411/170 145/411/170 189/412/170 183/413/170
f 188/401/171 175/414/171 139/415/171 184/398/171
f 185/416/172 187/417/172 142/418/172
f 190/396/173 138/346/173 187/397/173
f 175/414/174 188/401/174 147/353/174
f 188/419/175 189/412/175 145/420/175 147/420/175
f 76/421/176 75/422/176 191/423/176 192/424/176
f 65/425/177 72/426/177 193/427/177 194/428/177
f 75/422/178 65/425/178 194/428/178 191/423/178
f 72/426/179 76/421/179 192/424/179 193/427/179
f 197/429/180 198/430/180 195/431/180 196/432/180
f 72/105/181 65/433/181 198/434/181 197/435/181
f 65/433/182 75/436/182 195/437/182 198/438/182
f 75/436/183 76/104/183 196/439/183 195/440/183
f 281/70/184 282/73/184 54/72/184 53/71/184
f 61/74/185 199/76/185 57/75/185
f 205/77/186 294/82/186 252/81/186 293/80/186 208/79/186 223/78/186
f 256/83/187 70/86/187 57/85/187 199/84/187
f 199/87/188 200/90/188 260/89/188 262/88/188
f 282/73/189 201/92/189 59/91/189 54/72/189
f 249/93/190 251/96/190 263/95/190 300/94/190
f 201/97/191 200/100/191 61/99/191 59/98/191
f 58/101/192 211/103/192 71/102/192
f 213/104/193 309/107/193 310/106/193 209/105/193
f 219/108/194 207/111/194 221/110/194 203/109/194
f 58/112/195 70/114/195 256/113/195
f 225/115/196 250/119/196 136/118/196 77/117/196 217/116/196
f 214/120/197 211/123/197 210/122/197 215/121/197
f 216/124/198 214/126/198 289/125/198
f 256/127/199 211/103/199 58/128/199
f 200/129/200 199/131/200 61/130/200
f 202/132/201 252/81/201 294/82/201 283/133/201
f 211/134/202 266/136/202 265/135/202 210/122/202
f 203/137/203 293/139/203 219/138/203
f 203/140/204 208/142/204 293/141/204
f 203/143/205 221/146/205 207/145/205 208/144/205
f 255/147/206 250/151/206 225/150/206 253/149/206 280/148/206
f 306/152/207 290/155/207 270/154/207 305/153/207
f 307/156/208 289/124/208 290/155/208 306/152/208
f 289/157/209 214/120/209 215/159/209 290/158/209
f 242/160/210 241/163/210 227/162/210 226/161/210
f 281/70/211 53/71/211 168/164/211 283/133/211
f 218/165/212 275/168/212 285/167/212 286/166/212
f 77/169/75 100/172/75 226/171/75 217/170/75
f 216/173/213 286/176/213 84/175/213 86/174/213
f 85/177/214 160/180/214 292/179/214 291/178/214
f 272/181/215 287/184/215 224/183/215 269/182/215
f 206/185/216 219/188/216 63/187/216 88/186/216
f 207/189/217 219/190/217 206/185/217
f 90/191/218 82/194/218 222/193/218 207/192/218
f 221/195/219 220/198/219 91/197/219 89/196/219
f 88/199/220 91/197/220 220/198/220 206/200/220
f 207/201/221 221/195/221 89/203/221 90/202/221
f 206/200/222 220/198/222 221/195/222 207/201/222
f 208/204/223 207/192/223 222/193/223 254/206/223 223/205/223
f 85/207/224 291/210/224 271/209/224 269/208/224
f 227/211/75 253/149/75 225/214/75 217/213/75 226/212/75
f 231/215/225 248/218/225 247/217/225 232/216/225
f 100/172/226 102/219/226 242/163/226 226/161/226
f 249/220/227 227/222/227 241/221/227
f 230/223/228 243/226/228 248/225/228 231/224/228
f 162/227/229 126/230/229 246/229/229 229/228/229
f 278/231/230 236/234/230 237/233/230 284/232/230
f 234/235/231 235/238/231 111/237/231 112/236/231
f 224/239/232 236/243/232 234/242/232 271/241/232 269/240/232
f 106/244/233 111/237/233 235/238/233 239/245/233
f 284/232/234 237/247/234 238/246/234
f 269/208/235 271/251/235 234/250/235 112/249/235 85/248/235
f 249/252/236 238/254/236 237/253/236 251/246/236
f 232/255/237 238/258/237 249/257/237 231/256/237
f 228/259/238 239/261/238 240/257/238 233/260/238
f 231/262/239 249/257/239 241/264/239 230/263/239
f 230/265/240 241/268/240 242/267/240 229/266/240
f 229/269/241 242/272/241 102/271/241 162/270/241
f 233/273/242 240/204/242 238/258/242 232/255/242
f 120/274/243 106/276/243 239/261/243 228/275/243
f 246/277/244 245/280/244 244/279/244 243/278/244
f 126/281/245 125/282/245 245/280/245 246/277/245
f 243/283/246 244/285/246 247/284/246 248/218/246
f 232/286/247 247/289/247 244/288/247 233/287/247
f 229/228/248 246/292/248 243/291/248 230/290/248
f 233/293/249 244/296/249 245/295/249 228/294/249
f 228/297/250 245/300/250 125/299/250 120/298/250
f 237/301/251 236/243/251 224/239/251 251/302/251
f 249/303/252 205/305/252 253/149/252 227/304/252
f 222/306/253 82/309/253 136/308/253 250/307/253
f 272/310/254 275/168/254 218/312/254 270/311/254
f 305/153/255 270/314/255 216/153/255 304/313/255
f 216/315/256 71/318/256 211/317/256 214/316/256
f 280/319/257 279/321/257 255/320/257
f 279/322/258 254/324/258 255/323/258
f 255/325/259 254/328/259 222/327/259 250/326/259
f 256/329/260 199/332/260 262/331/260 264/330/260
f 211/103/261 256/329/261 264/330/261 266/333/261
f 210/334/262 224/183/262 287/184/262
f 261/335/263 260/337/263 200/336/263
f 205/338/264 249/93/264 300/94/264 261/95/264 200/100/264 201/339/264
f 259/340/265 288/343/265 258/342/265 267/341/265
f 257/344/266 259/340/266 267/341/266 303/345/266
f 257/346/267 300/348/267 263/347/267
f 257/346/268 263/347/268 265/350/268 259/349/268
f 259/351/269 265/350/269 266/353/269 288/352/269
f 271/354/270 275/357/270 272/356/270 269/355/270
f 268/358/271 274/361/271 292/360/271 273/359/271
f 277/360/272 275/357/272 274/361/272 268/358/272
f 276/362/273 273/359/273 292/364/273 160/363/273 151/362/273 285/362/273
f 273/365/274 276/368/274 277/367/274 268/366/274
f 263/369/275 251/371/275 210/370/275 265/369/275
f 235/238/276 278/231/276 240/373/276 239/372/276
f 235/238/277 234/235/277 236/234/277 278/231/277
f 205/305/278 280/374/278 253/149/278
f 205/375/279 223/377/279 254/325/279 279/376/279
f 205/305/280 279/321/280 280/319/280
f 169/378/281 63/380/281 219/379/281 252/81/281
f 205/77/282 201/92/282 282/73/282 294/82/282
f 294/82/283 282/73/283 281/70/283 283/133/283
f 168/164/284 170/381/284 202/132/284 283/133/284
f 219/379/285 293/80/285 252/81/285
f 169/378/286 252/81/286 202/132/286 170/381/286
f 278/231/287 284/232/287 238/246/287 240/373/287
f 270/311/288 218/383/288 286/382/288 216/173/288
f 285/384/289 151/386/289 84/385/289 286/166/289
f 285/362/290 275/357/290 277/360/290 276/362/290
f 270/311/291 215/387/291 210/334/291 287/184/291 272/181/291
f 215/388/292 270/311/292 290/158/292
f 304/389/293 216/153/293 289/124/293 307/156/293
f 251/390/294 224/183/294 210/334/294
f 86/174/295 71/391/295 216/173/295
f 274/361/296 275/357/296 271/392/296
f 292/179/297 274/393/297 271/178/297 291/178/297
f 298/394/298 303/396/298 299/395/298
f 300/397/299 303/396/299 298/394/299
f 297/398/300 296/400/300 295/399/300 299/395/300
f 299/395/301 295/399/301 298/394/301
f 301/401/302 302/402/302 296/400/302 297/398/302
f 258/403/303 297/398/303 299/395/303 267/404/303
f 295/399/304 260/406/304 261/405/304 298/394/304
f 296/400/305 262/408/305 260/407/305 295/399/305
f 299/395/306 303/410/306 267/409/306
f 262/411/307 296/413/307 302/412/307 264/411/307
f 301/401/308 297/398/308 258/415/308 288/414/308
f 298/416/309 261/418/309 300/417/309
f 303/396/310 300/397/310 257/346/310
f 288/414/311 266/353/311 301/401/311
f 301/419/312 266/420/312 264/420/312 302/412/312
f 213/421/313 305/424/313 304/423/313 212/422/313
f 204/425/314 307/428/314 306/427/314 209/426/314
f 212/422/315 304/423/315 307/428/315 204/425/315
f 209/426/316 306/427/316 305/424/316 213/421/316
f 310/429/317 309/432/317 308/431/317 311/430/317
f 209/105/318 310/435/318 311/434/318 204/433/318
f 204/433/319 311/438/319 308/437/319 212/436/319
f 212/436/320 308/440/320 309/439/320 213/104/320